<svg id="OBJECTS" xmlns="http://www.w3.org/2000/svg" viewBox="0 0 671.27 330.91"><defs><style>.cls-1{fill:#27afa8;}.cls-2{fill:#55bcbc;}.cls-3{fill:#b23d50;}.cls-10,.cls-11,.cls-12,.cls-13,.cls-14,.cls-15,.cls-17,.cls-18,.cls-19,.cls-20,.cls-21,.cls-22,.cls-23,.cls-24,.cls-25,.cls-26,.cls-27,.cls-28,.cls-29,.cls-30,.cls-31,.cls-32,.cls-33,.cls-34,.cls-35,.cls-36,.cls-37,.cls-38,.cls-39,.cls-4,.cls-40,.cls-49,.cls-8,.cls-9{fill:none;stroke-linecap:round;stroke-linejoin:round;}.cls-4,.cls-49{stroke:#fff;}.cls-4{stroke-width:2.44px;stroke-dasharray:6.76;}.cls-47,.cls-5{fill:#fff;}.cls-6{fill:#e25a64;}.cls-7{fill:#ce4e5e;}.cls-10,.cls-11,.cls-12,.cls-13,.cls-14,.cls-17,.cls-18,.cls-19,.cls-20,.cls-21,.cls-22,.cls-23,.cls-25,.cls-26,.cls-27,.cls-28,.cls-29,.cls-30,.cls-31,.cls-33,.cls-34,.cls-35,.cls-36,.cls-37,.cls-38,.cls-39,.cls-8,.cls-9{stroke:#ce4e5e;}.cls-8{stroke-width:1.04px;}.cls-9{stroke-width:0.9px;}.cls-10{stroke-width:0.7px;}.cls-11{stroke-width:0.92px;}.cls-12{stroke-width:1.11px;}.cls-13{stroke-width:1.41px;}.cls-14{stroke-width:1.5px;}.cls-15,.cls-24,.cls-32,.cls-40{stroke:#8c2f45;}.cls-15{stroke-width:2.47px;}.cls-16{fill:#8c2f45;}.cls-17{stroke-width:0.59px;}.cls-18{stroke-width:0.51px;}.cls-19{stroke-width:0.4px;}.cls-20{stroke-width:0.53px;}.cls-21{stroke-width:0.63px;}.cls-22{stroke-width:0.81px;}.cls-23{stroke-width:0.85px;}.cls-24{stroke-width:1.41px;}.cls-25{stroke-width:0.5px;}.cls-26{stroke-width:0.44px;}.cls-27{stroke-width:0.34px;}.cls-28{stroke-width:0.45px;}.cls-29{stroke-width:0.54px;}.cls-30{stroke-width:0.68px;}.cls-31{stroke-width:0.72px;}.cls-32{stroke-width:1.2px;}.cls-33{stroke-width:0.47px;}.cls-34{stroke-width:0.41px;}.cls-35{stroke-width:0.32px;}.cls-36{stroke-width:0.42px;}.cls-37{stroke-width:0.51px;}.cls-38{stroke-width:0.64px;}.cls-39{stroke-width:0.68px;}.cls-40{stroke-width:1.12px;}.cls-41{fill:#cbd6e0;}.cls-42{fill:#dae5ef;}.cls-43{fill:#662034;}.cls-44{fill:#dae1e5;}.cls-45{fill:#bbc7d1;}.cls-46{fill:#e7edf2;}.cls-47,.cls-49{opacity:0.3;isolation:isolate;}.cls-48{fill:#21a59b;}.cls-49{stroke-width:2px;}</style></defs><title>world-map</title><polygon class="cls-1" points="141.22 104.39 117.14 125.47 119.54 137.51 117.14 142.13 113.64 136.49 113.64 128.84 103.67 126.18 99.02 130.17 95.03 129.84 92.04 127.18 82.07 132.16 77.42 144.13 79.08 152.77 82.74 157.09 87.06 157.09 93.37 153.1 93.04 149.71 101.02 149.71 95.03 161.74 97.03 164.41 105 163.95 105 175.37 109.32 180.34 112.65 178.36 117.63 178.36 120.2 180.93 129.34 171.79 133.59 171.79 136.54 174.74 151.2 174.74 164.87 188.42 173.8 188.42 181.56 196.19 181.56 203.29 193.74 209.27 204.71 209.27 213.68 214.92 213.68 226.55 205.54 234.69 205.54 253.47 198.97 260.03 187.42 266.26 187.42 272.75 179.12 287.7 171.14 285.04 169.15 287.7 174.46 292.69 169.15 298 164.96 298 164.96 303.65 160.24 308.37 160.24 316.95 164.44 321.14 160.84 330.9 155.52 330.9 145.55 315.62 145.55 307.64 140.07 302.16 140.07 255.13 126.19 241.26 109.66 213.92 114.97 208.6 114.97 196.97 120.29 191.65 120.29 185.01 117.3 182.02 112.98 182.02 109.66 185.34 99.85 175.53 99.85 170.38 93.37 170.38 86.89 163.91 78.75 163.91 61.14 155.76 48.84 124.85 45.52 124.85 45.52 130.84 49.84 140.47 49.84 144.46 47.18 144.13 41.53 131.5 41.53 122.53 38.2 115.55 38.2 100.26 48.51 83.31 48.17 73.67 50.83 67.03 50.83 58.56 32.22 53.4 20.92 58.56 18.93 55.73 7.28 57.07 1.98 57.07 1.98 53.4 5.97 49.41 17.93 49.41 21.25 46.09 13.28 46.09 17.6 41.77 24.85 41.77 21.55 38.48 24.38 35.65 32.89 35.65 44.85 31.13 57.15 31.13 72.77 36.45 109.99 36.45 115.64 42.1 119.63 38.11 135.91 38.11 138.57 40.77 142.39 36.95 150.87 36.95 141.48 46.34 137.24 46.34 137.24 51.07 124.94 55.4 124.94 60.05 128.27 64.7 140.9 66.69 136.58 74 140.56 77.66 145.88 74.67 144.89 69.02 155.52 62.37 154.85 58.56 159.84 52.73 167.82 52.73 172.14 57.06 172.14 62.04 181.77 56.72 181.77 70.35 184.77 70.35 187.09 68.02 189.75 70.68 184.1 76.33 173.8 79.66 163.5 79.66 156.52 86.63 159.34 89.46 164.56 84.24 170.48 84.24 164.36 90.36 168.71 94.71 165.39 98.03 151.2 98.03 146.88 103.58 149.87 107.57 155.52 105.58 149.87 107.57 145.22 109.9 141.22 104.39"/><polygon class="cls-1" points="108.99 151.99 114.64 151.99 118.5 155.84 125.94 155.84 125.94 161.69 133.09 154.55 129.4 150.86 119.29 150.86 116.07 147.63 108.99 147.63 108.99 151.99"/><path class="cls-1" d="M252,178.7h5.39a2.66,2.66,0,0,0,2.5-1.75l2.72-7.47a2.66,2.66,0,0,1,2.5-1.75h7.37a2.66,2.66,0,0,0,1.85-.75l8.09-7.81a2.66,2.66,0,0,1,1.85-.75H297a2.65,2.65,0,0,0,1.88-.78l2.38-2.38h-6.15l-2.08-2.08h2.74a2.66,2.66,0,0,0,2.66-2.66V147.8h2.83l7.91-3.61a2.66,2.66,0,0,0,1.56-2.42v-.95a2.66,2.66,0,0,1,2.66-2.66h2.66a2.66,2.66,0,0,0,2.66-2.66h0a2.66,2.66,0,0,0-2.66-2.66h-5l-1.63-1.63-32.13-.58a6.65,6.65,0,0,1-1.67-.24L255,124.65c-.71,0-12.36,4.94-12.36,4.94a7.17,7.17,0,0,0-4.46,5.71s-1.86,8.86-.82,9.9l3.64,3.64a2.65,2.65,0,0,1,.78,1.88v18.19a2.65,2.65,0,0,0,.83,1.93l7.54,7.13A2.66,2.66,0,0,0,252,178.7Z" transform="translate(-37.25 -121.65)"/><polygon class="cls-1" points="373.54 133.83 393.81 165.59 403.44 165.59 421.47 154.84 421.47 142.8 407.43 142.8 397.98 133.35 397.98 127.18 404.44 127.18 404.44 131.5 421.47 131.5 421.47 138.48 439.01 138.48 464.53 164 464.53 181.02 473.57 181.02 477.95 169.06 477.95 161.74 491.46 148.24 498.83 148.24 506.14 160.75 511.79 160.75 514.11 165.59 514.11 171.05 518.1 171.05 520.76 168.39 532.06 179.68 537.71 179.68 537.71 161.08 529.4 152.77 529.4 149.71 537.71 149.71 541.23 153.23 541.23 149.71 548.35 149.71 557.45 140.6 557.45 127.18 549.68 116.21 554.33 111.89 551.34 107.9 548.68 110.56 543.03 104.91 548.01 100.92 551.67 104.58 557.45 104.58 557.45 108.24 561.97 108.24 569.62 115.88 572.27 115.88 572.27 111.56 562.47 101.75 562.47 96.27 569.62 96.27 575.1 90.79 575.1 77 565.21 67.11 554.99 67.11 557.65 61.38 568.62 61.38 571.77 58.22 571.77 54.4 575.1 54.4 576.59 58.56 580.58 57.06 590.22 60.71 590.22 66.03 600.52 76.33 606.17 76.33 606.17 57.06 598.53 49.41 598.53 42.77 591.22 35.45 557.98 35.45 554 39.44 541.7 39.44 503.81 28.48 468.25 28.48 475.56 21.16 465.92 11.53 455.79 21.66 437.68 21.66 418.81 40.52 364.39 40.52 340.3 69.35 305.07 69.35 289.95 84.47 289.95 96.27 276.77 96.27 276.77 101.26 272.14 105.88 272.14 110.23 281.48 110.23 285.13 113.89 301.08 97.93 301.08 93.95 310.72 93.95 314.38 90.95 328.34 104.91 326.34 110.23 332.99 103.92 324.68 94.61 327.01 91.62 340.47 105.08 337.41 108.14 345.38 116.11 348.11 113.39 343.62 108.9 350.77 101.75 358.58 101.75 358.58 105.91 352.27 105.91 359.91 113.55 370.88 113.55 370.88 124.52 354.59 124.52 343.29 120.86 338.42 120.86 338.42 124.77 334.89 127.84 317.04 116.88 317.04 111.23 299.76 111.23 291.99 119 279.81 119 262.43 136.38 262.43 177.69 275.92 191.18 292.44 191.18 299.02 184.6 310.06 184.6 316.34 190.88 316.34 202.29 325.35 227.88 319.69 242.5 319.69 252.14 334.67 278.39 334.67 285.71 351.6 285.71 366.06 271.25 366.06 264.1 371.62 258.54 371.62 251.14 383.71 239.05 383.71 206.95 398.4 192.26 402.78 192.32 410.76 177.36 410.76 172.04 390.15 172.04 366.22 133.83 373.54 133.83"/><polygon class="cls-1" points="351.93 54.37 340.66 54.37 337.17 50.88 342.13 45.92 338.97 42.77 333.32 48.41 328.5 48.41 328.5 53.73 332.99 58.56 328.5 58.56 328.5 64.37 323.68 69.35 320.36 65.7 320.36 61.38 316.37 58.56 312.05 61.38 306.4 58.56 305.07 53.4 315.84 48.21 330.66 33.38 347.87 33.38 351.93 37.45 359.91 37.45 363.69 41.23 359.84 45.07 356.23 41.46 352.1 45.59 356.44 49.93 351.93 54.37"/><polygon class="cls-1" points="394.47 241.5 394.47 251.81 390.82 255.46 390.82 265.1 398.13 265.1 400.95 262.27 398.13 259.45 402.28 255.3 402.28 245.82 406.68 241.42 406.68 234.86 401.78 234.86 394.47 241.5"/><polygon class="cls-1" points="571.18 133.12 574.22 130.09 578.93 130.09 593.93 115.09 593.93 97.06 597.8 97.06 597.8 106.16 606.17 110.54 596.79 117.28 596.46 125.37 583.31 136.49 575.9 133.46 571.18 138.51 571.18 147.63 562.42 143.57 562.42 135.14 571.18 133.12"/><polygon class="cls-1" points="545.91 197.15 558.04 184.01 562.42 188.72 562.42 200.18 558.38 204.9 558.38 210.97 547.26 210.97 541.53 204.56 541.53 197.49 545.91 197.15"/><polygon class="cls-1" points="514.9 187.71 527.37 199.17 527.37 204.23 534.79 213.32 534.79 218.04 528.72 218.04 521.31 210.97 520.97 202.88 508.84 187.71 514.9 187.71"/><polygon class="cls-1" points="601.51 214.67 606.17 214.67 609.6 218.04 606.17 220.4 609.6 224.44 616 224.44 618.07 222.76 626.45 230.18 634.54 230.18 636.56 227.14 633.19 224.78 629.48 224.78 624.93 220.23 624.93 216.36 627.46 216.36 618.06 206.96 606.17 206.96 603.82 204.61 598.14 210.29 601.51 214.67"/><polygon class="cls-1" points="592.75 294.88 609.6 294.88 631.84 272.63 631.84 259.49 621.19 248.84 621.19 241.29 616.07 236.18 616.07 231.86 611.99 235.94 611.99 240.96 606.05 246.9 597.44 238.29 599.66 236.07 599.66 230.18 592.75 230.18 586.87 236.06 586.87 241.29 584.3 241.29 580.77 237.77 574.22 237.77 566.73 245.26 566.73 251.74 544.9 256.46 544.9 281.06 556.35 291.84 567.48 280.05 580.96 280.05 580.96 287.13 584.3 287.13 592.06 279.36 595.95 283.25 592.08 287.13 592.75 294.88"/><polygon class="cls-1" points="595.78 303.64 603.87 303.64 603.87 308.02 597.8 314.08 593.17 309.45 595.78 303.64"/><polygon class="cls-1" points="631.84 315.43 643.64 315.43 648.18 310.88 652.4 310.88 656.86 306.42 656.86 303.64 650.04 303.64 644.25 309.43 636.56 309.43 631.84 315.43"/><polygon class="cls-1" points="663.18 305.32 671.27 297.24 667.23 297.24 667.23 291.51 663.18 291.51 663.18 297.91 659.81 301.28 663.18 305.32"/><polygon class="cls-2" points="139.25 101.38 115.16 122.46 117.56 134.51 115.16 139.13 111.67 133.48 111.67 125.83 101.7 123.17 97.05 127.16 93.06 126.83 90.07 124.17 80.09 129.16 75.44 141.12 77.11 149.76 80.76 154.08 85.08 154.08 91.39 150.09 91.06 146.7 99.04 146.7 93.06 158.74 95.05 161.4 103.03 160.94 103.03 172.36 107.35 177.34 110.67 175.35 115.65 175.35 118.22 177.92 127.36 168.78 131.61 168.78 134.56 171.73 149.22 171.73 162.9 185.41 171.82 185.41 179.59 193.18 179.59 200.28 191.76 206.26 202.73 206.26 211.7 211.91 211.7 223.54 203.56 231.69 203.56 250.46 197 257.02 185.45 263.25 185.45 269.74 177.14 284.69 169.16 282.03 167.17 284.69 172.49 289.68 167.17 295 162.98 295 162.98 300.64 158.26 305.37 158.26 313.94 162.46 318.13 158.86 327.9 153.54 327.9 143.57 312.61 143.57 304.63 138.09 299.15 138.09 252.12 124.21 238.25 107.68 210.91 113 205.6 113 193.97 118.31 188.65 118.31 182 115.32 179.01 111 179.01 107.68 182.33 97.88 172.53 97.88 167.38 91.39 167.38 84.92 160.9 76.77 160.9 59.16 152.75 46.86 121.85 43.54 121.85 43.54 127.83 47.86 137.47 47.86 141.45 45.2 141.12 39.55 128.49 39.55 119.52 36.23 112.54 36.23 97.25 46.53 80.3 46.2 70.67 48.85 64.02 48.85 55.56 30.25 50.39 18.94 55.56 16.95 52.72 5.3 54.06 0 54.06 0 50.39 3.99 46.41 15.95 46.41 19.27 43.08 11.3 43.08 15.62 38.76 22.87 38.76 19.58 35.47 22.4 32.65 30.91 32.65 42.87 28.13 55.17 28.13 70.79 33.44 108.01 33.44 113.66 39.09 117.65 35.1 133.94 35.1 136.59 37.76 140.41 33.94 148.89 33.94 139.5 43.33 135.26 43.33 135.26 48.07 122.97 52.39 122.97 57.04 126.29 61.69 138.92 63.69 134.6 71 138.59 74.65 143.9 71.66 142.91 66.01 153.54 59.37 152.88 55.56 157.86 49.73 165.84 49.73 170.16 54.05 170.16 59.03 179.8 53.72 179.8 67.34 182.79 67.34 185.12 65.02 187.77 67.67 182.12 73.33 171.82 76.65 161.52 76.65 154.54 83.63 157.36 86.45 162.58 81.23 168.5 81.23 162.38 87.35 166.74 91.7 163.41 95.02 149.22 95.02 144.9 100.58 147.89 104.56 153.54 102.57 147.89 104.56 143.24 106.89 139.25 101.38"/><polygon class="cls-2" points="107.02 148.98 112.66 148.98 116.52 152.84 123.96 152.84 123.96 158.69 131.11 151.54 127.42 147.85 117.32 147.85 114.09 144.63 107.02 144.63 107.02 148.98"/><path class="cls-2" d="M250,175.7h5.39a2.66,2.66,0,0,0,2.5-1.75l2.71-7.47a2.66,2.66,0,0,1,2.5-1.75h7.37a2.66,2.66,0,0,0,1.85-.75l8.09-7.81a2.66,2.66,0,0,1,1.85-.75H295a2.66,2.66,0,0,0,1.88-.78l2.38-2.38h-6.15l-2.08-2.08h2.74a2.66,2.66,0,0,0,2.66-2.66v-2.74h2.83l7.92-3.61a2.66,2.66,0,0,0,1.55-2.42v-.95a2.66,2.66,0,0,1,2.66-2.66h2.66a2.66,2.66,0,0,0,2.66-2.66h0a2.66,2.66,0,0,0-2.66-2.66h-5l-1.63-1.63-32.13-.58a6.71,6.71,0,0,1-1.67-.24L253,121.65c-.7,0-12.36,4.94-12.36,4.94a7.16,7.16,0,0,0-4.46,5.71s-1.86,8.86-.82,9.9l3.64,3.64a2.66,2.66,0,0,1,.78,1.88v18.19a2.66,2.66,0,0,0,.83,1.93l7.54,7.13A2.65,2.65,0,0,0,250,175.7Z" transform="translate(-37.25 -121.65)"/><polygon class="cls-2" points="371.56 130.82 391.83 162.58 401.47 162.58 419.49 151.83 419.49 139.79 405.46 139.79 396 130.34 396 124.17 402.46 124.17 402.46 128.49 419.49 128.49 419.49 135.47 437.03 135.47 462.55 160.99 462.55 178.01 471.59 178.01 475.98 166.05 475.98 158.74 489.48 145.23 496.85 145.23 504.16 157.74 509.81 157.74 512.14 162.58 512.14 168.04 516.13 168.04 518.78 165.38 530.08 176.68 535.73 176.68 535.73 158.07 527.42 149.76 527.42 146.7 535.73 146.7 539.26 150.23 539.26 146.7 546.37 146.7 555.47 137.6 555.47 124.17 547.7 113.21 552.35 108.89 549.36 104.9 546.7 107.56 541.05 101.91 546.03 97.92 549.69 101.57 555.47 101.57 555.47 105.23 559.99 105.23 567.64 112.87 570.29 112.87 570.29 108.55 560.49 98.75 560.49 93.27 567.64 93.27 573.12 87.78 573.12 73.99 563.23 64.1 553.01 64.1 555.67 58.37 566.64 58.37 569.8 55.21 569.8 51.39 573.12 51.39 574.62 55.56 578.6 54.05 588.24 57.7 588.24 63.02 598.54 73.33 604.19 73.33 604.19 54.05 596.55 46.41 596.55 39.76 589.24 32.45 556.01 32.45 552.02 36.44 539.72 36.44 501.83 25.47 466.27 25.47 473.58 18.16 463.95 8.52 453.81 18.66 435.7 18.66 416.84 37.52 362.41 37.52 338.32 66.35 303.1 66.35 287.98 81.47 287.98 93.27 274.79 93.27 274.79 98.25 270.17 102.88 270.17 107.22 279.5 107.22 283.15 110.88 299.11 94.93 299.11 90.94 308.75 90.94 312.4 87.95 326.36 101.91 324.36 107.22 331.01 100.91 322.7 91.6 325.03 88.61 338.49 102.07 335.43 105.13 343.41 113.11 346.13 110.38 341.64 105.89 348.79 98.75 356.6 98.75 356.6 102.9 350.29 102.9 357.93 110.55 368.9 110.55 368.9 121.51 352.61 121.51 341.31 117.86 336.45 117.86 336.45 121.76 332.92 124.84 315.06 113.87 315.06 108.22 297.78 108.22 290.01 115.99 277.84 115.99 260.45 133.38 260.45 174.69 273.94 188.17 290.47 188.17 297.04 181.6 308.08 181.6 314.36 187.88 314.36 199.28 323.37 224.87 317.72 239.5 317.72 249.13 332.69 275.39 332.69 282.7 349.62 282.7 364.08 268.24 364.08 261.1 369.65 255.53 369.65 248.14 381.74 236.05 381.74 203.94 396.42 189.25 400.8 189.31 408.78 174.36 408.78 169.04 388.18 169.04 364.25 130.82 371.56 130.82"/><polygon class="cls-2" points="349.95 51.36 338.69 51.36 335.19 47.87 340.15 42.91 336.99 39.76 331.34 45.41 326.53 45.41 326.53 50.73 331.01 55.56 326.53 55.56 326.53 61.36 321.71 66.35 318.38 62.69 318.38 58.37 314.39 55.56 310.07 58.37 304.43 55.56 303.1 50.39 313.86 45.2 328.69 30.38 345.89 30.38 349.95 34.44 357.93 34.44 361.71 38.22 357.86 42.07 354.25 38.46 350.12 42.58 354.46 46.92 349.95 51.36"/><polygon class="cls-2" points="392.5 238.5 392.5 248.8 388.84 252.46 388.84 262.1 396.15 262.1 398.98 259.27 396.15 256.44 400.31 252.29 400.31 242.82 404.71 238.42 404.71 231.85 399.81 231.85 392.5 238.5"/><polygon class="cls-2" points="569.21 130.11 572.24 127.08 576.96 127.08 591.95 112.08 591.95 94.06 595.83 94.06 595.83 103.15 604.19 107.54 594.82 114.28 594.48 122.36 581.34 133.48 573.92 130.45 569.21 135.5 569.21 144.63 560.44 140.56 560.44 132.14 569.21 130.11"/><polygon class="cls-2" points="543.93 194.14 556.06 181 560.44 185.72 560.44 197.18 556.4 201.89 556.4 207.96 545.28 207.96 539.55 201.56 539.55 194.48 543.93 194.14"/><polygon class="cls-2" points="512.93 184.71 525.4 196.16 525.4 201.22 532.81 210.32 532.81 215.04 526.74 215.04 519.33 207.96 518.99 199.87 506.86 184.71 512.93 184.71"/><polygon class="cls-2" points="599.53 211.67 604.19 211.67 607.62 215.04 604.19 217.39 607.62 221.44 614.02 221.44 616.09 219.75 624.47 227.17 632.56 227.17 634.58 224.13 631.21 221.77 627.5 221.77 622.96 217.22 622.96 213.35 625.48 213.35 616.08 203.95 604.19 203.95 601.85 201.6 596.16 207.28 599.53 211.67"/><polygon class="cls-2" points="590.77 291.87 607.62 291.87 629.86 269.63 629.86 256.49 619.21 245.83 619.21 238.29 614.09 233.17 614.09 228.85 610.01 232.93 610.01 237.95 604.07 243.89 595.46 235.28 597.68 233.06 597.68 227.17 590.77 227.17 584.89 233.05 584.89 238.29 582.32 238.29 578.79 234.76 572.24 234.76 564.75 242.25 564.75 248.73 542.92 253.45 542.92 278.05 554.38 288.84 565.5 277.04 578.98 277.04 578.98 284.12 582.32 284.12 590.09 276.35 593.98 280.24 590.1 284.12 590.77 291.87"/><polygon class="cls-2" points="593.8 300.63 601.89 300.63 601.89 305.01 595.83 311.08 591.19 306.44 593.8 300.63"/><polygon class="cls-2" points="629.86 312.43 641.66 312.43 646.21 307.88 650.42 307.88 654.89 303.41 654.89 300.63 648.06 300.63 642.27 306.42 634.58 306.42 629.86 312.43"/><polygon class="cls-2" points="661.2 302.32 669.29 294.23 665.25 294.23 665.25 288.5 661.2 288.5 661.2 294.9 657.83 298.27 661.2 302.32"/><polygon class="cls-3" points="555.47 101.57 549.69 101.57 546.03 97.92 541.05 101.91 546.7 107.56 549.36 104.9 552.35 108.89 547.7 113.21 555.47 124.17 555.47 137.6 546.37 146.7 539.26 146.7 539.26 150.23 535.73 146.7 527.42 146.7 522.47 148.94 515.47 148.94 515.47 144.63 506.86 139.93 503.7 126.35 503.7 119.34 494.69 119.34 475.92 119.34 472.17 109.15 467.05 89.63 476.67 81.37 483.43 76.86 489.43 70.11 502.2 70.11 506.86 79.87 523.22 86.41 528.45 79.87 528.45 70.11 539.55 73.11 548.16 80.62 558.61 86.41 551.53 94.06 554.76 97.51 553.63 101.06 555.47 101.57"/><path class="cls-4" d="M533.82,222.71S340.3,140.33,120.58,211.34" transform="translate(-37.25 -121.65)"/><circle class="cls-5" cx="83.33" cy="89.7" r="4.53"/><path class="cls-4" d="M544.11,231.81S277,238,192,336.68" transform="translate(-37.25 -121.65)"/><circle class="cls-5" cx="154.72" cy="215.04" r="4.53"/><path class="cls-4" d="M518.05,222.71S405.8,196.7,349,275.85" transform="translate(-37.25 -121.65)"/><circle class="cls-5" cx="313.74" cy="152.62" r="4.53"/><path class="cls-4" d="M539.45,215.7s-88.4-51.73-176.8,2.92" transform="translate(-37.25 -121.65)"/><circle class="cls-5" cx="325.4" cy="96.97" r="4.53"/><path class="cls-4" d="M557.09,241.79s-92.4-2.88-172.71,94.24" transform="translate(-37.25 -121.65)"/><circle class="cls-5" cx="351.65" cy="210.51" r="4.53"/><path class="cls-4" d="M565.7,231.81s78.63,51.31,75.75,155.1" transform="translate(-37.25 -121.65)"/><circle class="cls-5" cx="604.78" cy="268.64" r="4.53"/><circle class="cls-5" cx="431.23" cy="46.81" r="4.53"/><path class="cls-4" d="M470.73,169.21s59.17.36,73.24,48" transform="translate(-37.25 -121.65)"/><circle class="cls-5" cx="282.76" cy="100.27" r="4.53"/><path class="cls-4" d="M320.66,221.92s20.85-21.06,39.3-5" transform="translate(-37.25 -121.65)"/><circle class="cls-6" cx="536" cy="75.7" r="31.2"/><path class="cls-6" d="M586.75,172.61s8.79-6,9.46-10.27A4.67,4.67,0,0,1,598,159c1.28-.82,4,.16,5.74,1.58a9.48,9.48,0,0,1,2.91,4.2,2.28,2.28,0,0,1-.73,3c-.93.65-2.13.45-2.8.74a11.3,11.3,0,0,0-3.8,2.31c-2.49,2.28-4.93,5.38-4.93,7.33C594.35,180.63,586.75,172.61,586.75,172.61Z" transform="translate(-37.25 -121.65)"/><ellipse class="cls-3" cx="601.68" cy="163.34" rx="2.21" ry="4.42" transform="translate(59.68 407.65) rotate(-51.13)"/><path class="cls-7" d="M602,168.11l-.12,0a8.58,8.58,0,0,1-5-4.3.41.41,0,1,1,.73-.38,7.78,7.78,0,0,0,4.51,3.89.41.41,0,0,1-.12.8Z" transform="translate(-37.25 -121.65)"/><path class="cls-6" d="M599.24,197.35s9.08,5.55,13.26,4.4a4.65,4.65,0,0,1,3.72.26c1.28.83,1.51,3.75.92,5.88a9.49,9.49,0,0,1-2.63,4.38,2.28,2.28,0,0,1-3,.55c-1-.58-1.29-1.76-1.83-2.25A11.31,11.31,0,0,0,606,208c-3.1-1.33-6.93-2.29-8.71-1.48C595.06,207.57,599.24,197.35,599.24,197.35Z" transform="translate(-37.25 -121.65)"/><ellipse class="cls-3" cx="613.82" cy="207.15" rx="4.42" ry="2.21" transform="translate(221.27 627.21) rotate(-75.39)"/><path class="cls-7" d="M609.63,209.45a.37.37,0,0,1,0-.12,8.58,8.58,0,0,1,1.87-6.31.41.41,0,0,1,.58-.07.41.41,0,0,1,.07.58,7.77,7.77,0,0,0-1.7,5.71.41.41,0,0,1-.36.46A.41.41,0,0,1,609.63,209.45Z" transform="translate(-37.25 -121.65)"/><path class="cls-6" d="M590.68,212.47s5.58,9.06,9.82,9.93a4.66,4.66,0,0,1,3.2,1.92c.76,1.32-.35,4-1.85,5.66a9.49,9.49,0,0,1-4.33,2.71,2.28,2.28,0,0,1-2.93-.87c-.61-1-.35-2.15-.61-2.83a11.25,11.25,0,0,0-2.13-3.91c-2.15-2.6-5.14-5.18-7.09-5.28C582.31,219.69,590.68,212.47,590.68,212.47Z" transform="translate(-37.25 -121.65)"/><ellipse class="cls-3" cx="599.23" cy="227.83" rx="4.42" ry="2.21" transform="translate(-6.13 403.21) rotate(-48.42)"/><path class="cls-7" d="M594.45,228a.36.36,0,0,1,0-.12,8.59,8.59,0,0,1,4.53-4.78.41.41,0,0,1,.54.2.41.41,0,0,1-.2.54,7.77,7.77,0,0,0-4.1,4.32.41.41,0,0,1-.53.24A.42.42,0,0,1,594.45,228Z" transform="translate(-37.25 -121.65)"/><path class="cls-6" d="M550,183.25s-4.79-9.5-8.93-10.73a4.67,4.67,0,0,1-3-2.19c-.65-1.38.69-4,2.32-5.48a9.49,9.49,0,0,1,4.54-2.33,2.28,2.28,0,0,1,2.84,1.11c.52,1,.17,2.17.36,2.87a11.27,11.27,0,0,0,1.79,4.08c1.93,2.77,4.68,5.6,6.62,5.86C558.9,176.76,550,183.25,550,183.25Z" transform="translate(-37.25 -121.65)"/><ellipse class="cls-3" cx="542.74" cy="167.22" rx="4.42" ry="2.21" transform="translate(-3.01 298.47) rotate(-43.57)"/><path class="cls-7" d="M547.51,167.48a.31.31,0,0,1,0,.12,8.59,8.59,0,0,1-4.92,4.38.41.41,0,1,1-.28-.77,7.76,7.76,0,0,0,4.45-4,.41.41,0,0,1,.78.23Z" transform="translate(-37.25 -121.65)"/><path class="cls-6" d="M557.86,220.17s-9.74,4.29-11.18,8.37a4.65,4.65,0,0,1-2.34,2.91c-1.41.57-3.94-.89-5.35-2.6a9.46,9.46,0,0,1-2.09-4.66,2.28,2.28,0,0,1,1.26-2.78c1-.47,2.18-.05,2.89-.21a11.22,11.22,0,0,0,4.16-1.57c2.86-1.78,5.84-4.38,6.2-6.3C551.86,210.9,557.86,220.17,557.86,220.17Z" transform="translate(-37.25 -121.65)"/><ellipse class="cls-3" cx="541.48" cy="226.54" rx="2.21" ry="4.42" transform="translate(-54.43 284.96) rotate(-40.57)"/><path class="cls-7" d="M542,221.79l.12,0a8.59,8.59,0,0,1,4.12,5.14.41.41,0,0,1-.79.24,7.76,7.76,0,0,0-3.72-4.65.41.41,0,0,1,.27-.77Z" transform="translate(-37.25 -121.65)"/><path class="cls-6" d="M596.27,182.94s8.16-.62,10.24-3.22a3.59,3.59,0,0,1,2.44-1.51c1.17-.06,2.63,1.66,3.22,3.25a7.31,7.31,0,0,1,.33,3.92c-.2,1.12-.77,1.61-1.62,1.69s-1.6-.52-2.15-.58a8.65,8.65,0,0,0-3.42.08c-2.53.56-5.35,1.69-6.1,3C598.26,191.2,596.27,182.94,596.27,182.94Z" transform="translate(-37.25 -121.65)"/><ellipse class="cls-3" cx="609.78" cy="182.5" rx="1.7" ry="3.4" transform="translate(-62.01 110.85) rotate(-21.17)"/><path class="cls-7" d="M608.19,185.82l-.08-.06a6.62,6.62,0,0,1-1.67-4.78.31.31,0,0,1,.33-.3.32.32,0,0,1,.3.33,6,6,0,0,0,1.5,4.32.32.32,0,0,1-.39.49Z" transform="translate(-37.25 -121.65)"/><path class="cls-6" d="M559.48,170.43s.85-8.14-1.32-10.66a3.58,3.58,0,0,1-1-2.67c.15-1.16,2.1-2.29,3.78-2.58a7.31,7.31,0,0,1,3.91.38,1.75,1.75,0,0,1,1.38,1.9c-.08.87-.79,1.48-1,2a8.66,8.66,0,0,0-.54,3.38c.1,2.59.7,5.57,1.84,6.54C568,170,559.48,170.43,559.48,170.43Z" transform="translate(-37.25 -121.65)"/><ellipse class="cls-3" cx="561.47" cy="157.06" rx="3.4" ry="1.7" transform="translate(-56.74 -13.58) rotate(-10.81)"/><path class="cls-7" d="M564.46,159.22l-.08.06a6.61,6.61,0,0,1-5,.78.31.31,0,0,1-.24-.38.32.32,0,0,1,.38-.24,6,6,0,0,0,4.52-.7.32.32,0,0,1,.44.1A.33.33,0,0,1,564.46,159.22Z" transform="translate(-37.25 -121.65)"/><path class="cls-6" d="M580.28,222.25s0,8.18,2.38,10.47a3.59,3.59,0,0,1,1.32,2.55c0,1.17-1.86,2.49-3.5,2.95a7.32,7.32,0,0,1-3.93,0c-1.1-.29-1.55-.9-1.56-1.75s.64-1.55.75-2.1a8.64,8.64,0,0,0,.2-3.41c-.35-2.57-1.25-5.47-2.49-6.32C571.88,223.57,580.28,222.25,580.28,222.25Z" transform="translate(-37.25 -121.65)"/><ellipse class="cls-3" cx="579.63" cy="235.75" rx="3.4" ry="1.7" transform="translate(-80.41 53.46) rotate(-16.57)"/><path class="cls-7" d="M576.45,233.9l.06-.07a6.63,6.63,0,0,1,4.9-1.29.32.32,0,0,1-.08.63,6,6,0,0,0-4.43,1.15.32.32,0,0,1-.45-.43Z" transform="translate(-37.25 -121.65)"/><path class="cls-6" d="M546.22,208.28s-8.11-1.13-10.7.95a3.59,3.59,0,0,1-2.71,1c-1.16-.2-2.21-2.18-2.44-3.86a7.29,7.29,0,0,1,.51-3.89,1.75,1.75,0,0,1,1.95-1.31c.87.11,1.45.85,2,1a8.6,8.6,0,0,0,3.36.66c2.59,0,5.59-.51,6.6-1.61C546,199.78,546.22,208.28,546.22,208.28Z" transform="translate(-37.25 -121.65)"/><ellipse class="cls-3" cx="532.93" cy="205.82" rx="1.7" ry="3.4" transform="translate(-62.49 -37.57) rotate(-8.81)"/><path class="cls-7" d="M535.19,202.92l.06.08a6.62,6.62,0,0,1,.61,5,.32.32,0,0,1-.61-.16,6,6,0,0,0-.55-4.55.32.32,0,0,1,.11-.43A.32.32,0,0,1,535.19,202.92Z" transform="translate(-37.25 -121.65)"/><path class="cls-6" d="M566.59,225.9s-2.83,6.47-1.71,9.1a3.1,3.1,0,0,1,.16,2.47c-.43.91-2.33,1.33-3.78,1.13a6.3,6.3,0,0,1-3.11-1.34,1.51,1.51,0,0,1-.63-1.92c.29-.69,1-1,1.31-1.4a7.45,7.45,0,0,0,1.33-2.63c.6-2.15.88-4.76.2-5.86C559.49,224.07,566.59,225.9,566.59,225.9Z" transform="translate(-37.25 -121.65)"/><ellipse class="cls-3" cx="561.45" cy="236.36" rx="1.46" ry="2.93" transform="translate(222.35 643.84) rotate(-83.13)"/><path class="cls-7" d="M559.56,233.81l.08,0a5.71,5.71,0,0,1,4.32.66.27.27,0,0,1,.09.37.27.27,0,0,1-.37.1,5.15,5.15,0,0,0-3.9-.61.27.27,0,0,1-.21-.49Z" transform="translate(-37.25 -121.65)"/><path class="cls-6" d="M575.63,167.48s2.08-6.75.66-9.24a3.1,3.1,0,0,1-.44-2.44c.33-1,2.16-1.58,3.63-1.55a6.31,6.31,0,0,1,3.25,1,1.51,1.51,0,0,1,.85,1.84c-.21.72-.92,1.12-1.15,1.54a7.47,7.47,0,0,0-1,2.77c-.35,2.21-.34,4.83.47,5.84C582.88,168.5,575.63,167.48,575.63,167.48Z" transform="translate(-37.25 -121.65)"/><ellipse class="cls-3" cx="579.55" cy="156.51" rx="1.47" ry="2.93" transform="translate(382.36 613.47) rotate(-89.66)"/><path class="cls-7" d="M581.71,158.82l-.07,0a5.71,5.71,0,0,1-4.37-.17.27.27,0,0,1-.14-.36.28.28,0,0,1,.36-.14,5.15,5.15,0,0,0,3.94.16.27.27,0,0,1,.27.47Z" transform="translate(-37.25 -121.65)"/><path class="cls-6" d="M544.15,192.91s-6.5-2.75-9.12-1.6a3.1,3.1,0,0,1-2.47.19c-.91-.42-1.35-2.31-1.17-3.77a6.32,6.32,0,0,1,1.3-3.13,1.51,1.51,0,0,1,1.91-.65c.7.28,1,1,1.42,1.3a7.44,7.44,0,0,0,2.65,1.29c2.16.58,4.77.83,5.86.13C545.9,185.79,544.15,192.91,544.15,192.91Z" transform="translate(-37.25 -121.65)"/><ellipse class="cls-3" cx="533.63" cy="187.9" rx="2.93" ry="1.47" transform="matrix(0.11, -0.99, 0.99, 0.11, 252.3, 576.64)"/><path class="cls-7" d="M536.16,186a.22.22,0,0,1,0,.07,5.71,5.71,0,0,1-.61,4.33.27.27,0,0,1-.47-.27,5.15,5.15,0,0,0,.56-3.91.27.27,0,0,1,.49-.22Z" transform="translate(-37.25 -121.65)"/><path class="cls-7" d="M557.1,213c1.38,1.56,1.62,3.68.54,4.73s-3.08.62-4.46-.95-1.62-3.68-.53-4.72S555.73,211.43,557.1,213Z" transform="translate(-37.25 -121.65)"/><path class="cls-8" d="M555.78,210.33a6.31,6.31,0,0,1,4.06,4.84" transform="translate(-37.25 -121.65)"/><path class="cls-8" d="M555.78,219.61a6.18,6.18,0,0,1-4.75-4.1" transform="translate(-37.25 -121.65)"/><path class="cls-7" d="M592.19,178.35c1.25,1.29,1.47,3,.49,3.89s-2.8.51-4.06-.78-1.47-3-.48-3.89S590.94,177.05,592.19,178.35Z" transform="translate(-37.25 -121.65)"/><path class="cls-9" d="M591,176.15a5.46,5.46,0,0,1,3.7,4" transform="translate(-37.25 -121.65)"/><path class="cls-9" d="M591,183.79a5.59,5.59,0,0,1-4.32-3.37" transform="translate(-37.25 -121.65)"/><path class="cls-7" d="M570.3,218.54c1.35.33,2.21,1.38,1.91,2.35s-1.63,1.48-3,1.15-2.21-1.38-1.91-2.35S569,218.21,570.3,218.54Z" transform="translate(-37.25 -121.65)"/><path class="cls-10" d="M568.62,217.6a4.22,4.22,0,0,1,4.05,1.09" transform="translate(-37.25 -121.65)"/><path class="cls-10" d="M571.75,222.6a4.32,4.32,0,0,1-4.21-.44" transform="translate(-37.25 -121.65)"/><path class="cls-7" d="M570.34,207.17a3.19,3.19,0,0,1,3.52,2.3,2.55,2.55,0,0,1-2.33,3.05,3.18,3.18,0,0,1-3.51-2.31A2.55,2.55,0,0,1,570.34,207.17Z" transform="translate(-37.25 -121.65)"/><path class="cls-11" d="M568,206.69s1.83-2.07,4.92-.48" transform="translate(-37.25 -121.65)"/><path class="cls-11" d="M574.49,212.07a3.92,3.92,0,0,1-4.66,1.46" transform="translate(-37.25 -121.65)"/><path class="cls-7" d="M577,178.13a3.18,3.18,0,0,1,3.43,2.43,2.56,2.56,0,0,1-2.44,3,3.18,3.18,0,0,1-3.43-2.43A2.55,2.55,0,0,1,577,178.13Z" transform="translate(-37.25 -121.65)"/><path class="cls-11" d="M574.62,177.57s1.91-2,4.93-.3" transform="translate(-37.25 -121.65)"/><path class="cls-11" d="M580.93,183.18a3.92,3.92,0,0,1-4.71,1.3" transform="translate(-37.25 -121.65)"/><path class="cls-7" d="M548.92,195.9c.48,1.3.08,2.6-.88,2.9s-2.14-.53-2.62-1.83-.08-2.6.89-2.89S548.44,194.6,548.92,195.9Z" transform="translate(-37.25 -121.65)"/><path class="cls-10" d="M548.77,194a4.22,4.22,0,0,1,1.35,4" transform="translate(-37.25 -121.65)"/><path class="cls-10" d="M546.35,199.36a4.32,4.32,0,0,1-2-3.75" transform="translate(-37.25 -121.65)"/><path class="cls-7" d="M562.65,172.44c2.26-.84,4.56-.41,5.15,1s-.78,3.16-3,4-4.56.41-5.15-1S560.4,173.28,562.65,172.44Z" transform="translate(-37.25 -121.65)"/><path class="cls-12" d="M559.28,172.88a8.34,8.34,0,0,1,6.89-2.41" transform="translate(-37.25 -121.65)"/><path class="cls-12" d="M568.9,175.77a8.07,8.07,0,0,1-6.44,3.3" transform="translate(-37.25 -121.65)"/><ellipse class="cls-7" cx="586.46" cy="215.46" rx="5.12" ry="3.7" transform="translate(-64.39 211.51) rotate(-31.03)"/><path class="cls-13" d="M580.71,213.38a8.55,8.55,0,0,1,7.42-4.24" transform="translate(-37.25 -121.65)"/><path class="cls-13" d="M592.78,215.85a8.55,8.55,0,0,1-6.65,5.37" transform="translate(-37.25 -121.65)"/><path class="cls-7" d="M590.22,197.19c.26-2.84,2.32-5.06,4.6-5s3.92,2.46,3.66,5.3-2.32,5.06-4.6,5S590,200,590.22,197.19Z" transform="translate(-37.25 -121.65)"/><path class="cls-14" d="M588.7,201a7.86,7.86,0,0,1,1-8.56" transform="translate(-37.25 -121.65)"/><path class="cls-14" d="M598.84,192.28a7.76,7.76,0,0,1,.52,8.54" transform="translate(-37.25 -121.65)"/><path class="cls-15" d="M558.53,195.61s5.18-5.3,8.74,3.24" transform="translate(-37.25 -121.65)"/><ellipse class="cls-16" cx="555.57" cy="188.94" rx="2.81" ry="2.26" transform="translate(272.68 600.22) rotate(-84.04)"/><line class="cls-15" x1="518.86" y1="63.35" x2="521.02" y2="67.33"/><ellipse class="cls-16" cx="575.01" cy="196.12" rx="3.04" ry="2.44" transform="translate(282.91 625.97) rotate(-84.03)"/><line class="cls-15" x1="534.51" y1="72.46" x2="540.22" y2="70.42"/><circle class="cls-6" cx="268.01" cy="61.19" r="17.79"/><path class="cls-6" d="M313,168.74s5-3.42,5.39-5.86a2.66,2.66,0,0,1,1-1.88c.73-.47,2.3.09,3.27.9a5.41,5.41,0,0,1,1.66,2.39,1.3,1.3,0,0,1-.41,1.69c-.53.37-1.22.26-1.6.42a6.44,6.44,0,0,0-2.17,1.32c-1.42,1.3-2.81,3.07-2.81,4.18C317.29,173.31,313,168.74,313,168.74Z" transform="translate(-37.25 -121.65)"/><ellipse class="cls-3" cx="321.47" cy="163.46" rx="1.26" ry="2.52" transform="translate(-44.77 189.55) rotate(-51.14)"/><path class="cls-7" d="M321.68,166.17h-.07a4.89,4.89,0,0,1-2.84-2.45.23.23,0,1,1,.42-.21,4.44,4.44,0,0,0,2.57,2.22.23.23,0,0,1-.07.46Z" transform="translate(-37.25 -121.65)"/><path class="cls-6" d="M320.08,182.84s5.18,3.16,7.56,2.51a2.65,2.65,0,0,1,2.12.15c.73.47.86,2.14.52,3.35a5.41,5.41,0,0,1-1.5,2.5,1.3,1.3,0,0,1-1.71.32c-.56-.33-.74-1-1-1.28a6.45,6.45,0,0,0-2.09-1.44c-1.77-.76-4-1.3-5-.85C317.69,188.67,320.08,182.84,320.08,182.84Z" transform="translate(-37.25 -121.65)"/><ellipse class="cls-3" cx="328.39" cy="188.43" rx="2.52" ry="1.26" transform="translate(25.96 337.02) rotate(-75.39)"/><path class="cls-7" d="M326,189.74a.21.21,0,0,1,0-.07,4.89,4.89,0,0,1,1.07-3.6.23.23,0,0,1,.33,0,.24.24,0,0,1,0,.33,4.43,4.43,0,0,0-1,3.25.23.23,0,0,1-.2.26A.24.24,0,0,1,326,189.74Z" transform="translate(-37.25 -121.65)"/><path class="cls-6" d="M315.2,191.47s3.18,5.17,5.6,5.66a2.66,2.66,0,0,1,1.82,1.09c.43.75-.2,2.29-1.05,3.22A5.4,5.4,0,0,1,319.1,203a1.3,1.3,0,0,1-1.67-.49c-.35-.54-.2-1.23-.35-1.61a6.41,6.41,0,0,0-1.21-2.23c-1.23-1.48-2.93-3-4-3C310.43,195.58,315.2,191.47,315.2,191.47Z" transform="translate(-37.25 -121.65)"/><ellipse class="cls-3" cx="320.07" cy="200.22" rx="2.52" ry="1.26" transform="translate(-79.37 185.1) rotate(-48.42)"/><path class="cls-7" d="M317.35,200.3a.18.18,0,0,1,0-.07,4.89,4.89,0,0,1,2.58-2.72.23.23,0,0,1,.31.12.24.24,0,0,1-.12.31,4.43,4.43,0,0,0-2.34,2.46.23.23,0,0,1-.3.14A.24.24,0,0,1,317.35,200.3Z" transform="translate(-37.25 -121.65)"/><path class="cls-6" d="M292,174.8s-2.73-5.42-5.09-6.12a2.66,2.66,0,0,1-1.73-1.25c-.37-.79.39-2.27,1.32-3.12a5.4,5.4,0,0,1,2.59-1.33,1.3,1.3,0,0,1,1.62.63c.3.57.1,1.24.21,1.64a6.42,6.42,0,0,0,1,2.32c1.1,1.58,2.67,3.19,3.77,3.34C297.08,171.11,292,174.8,292,174.8Z" transform="translate(-37.25 -121.65)"/><ellipse class="cls-3" cx="287.87" cy="165.67" rx="2.52" ry="1.26" transform="translate(-72.14 122.38) rotate(-43.57)"/><path class="cls-7" d="M290.59,165.81a.17.17,0,0,1,0,.07,4.89,4.89,0,0,1-2.8,2.5.23.23,0,1,1-.16-.44,4.42,4.42,0,0,0,2.54-2.25.23.23,0,0,1,.45.13Z" transform="translate(-37.25 -121.65)"/><path class="cls-6" d="M296.49,195.85s-5.55,2.44-6.37,4.77a2.66,2.66,0,0,1-1.33,1.66c-.8.33-2.25-.51-3-1.48a5.39,5.39,0,0,1-1.19-2.66,1.3,1.3,0,0,1,.72-1.58c.59-.27,1.24,0,1.65-.12a6.41,6.41,0,0,0,2.37-.9c1.63-1,3.33-2.5,3.53-3.59C293.07,190.57,296.49,195.85,296.49,195.85Z" transform="translate(-37.25 -121.65)"/><ellipse class="cls-3" cx="287.15" cy="199.49" rx="1.26" ry="2.52" transform="translate(-97.96 113.1) rotate(-40.58)"/><path class="cls-7" d="M287.44,196.78l.07,0a4.9,4.9,0,0,1,2.35,2.93.23.23,0,0,1-.45.13,4.42,4.42,0,0,0-2.12-2.65.23.23,0,0,1,.15-.44Z" transform="translate(-37.25 -121.65)"/><path class="cls-6" d="M318.39,174.63s4.65-.36,5.84-1.83a2,2,0,0,1,1.39-.86c.67,0,1.5.94,1.83,1.85a4.17,4.17,0,0,1,.19,2.23c-.11.64-.44.92-.92,1s-.91-.29-1.23-.33a4.94,4.94,0,0,0-1.95,0c-1.44.32-3.05,1-3.48,1.7C319.52,179.34,318.39,174.63,318.39,174.63Z" transform="translate(-37.25 -121.65)"/><ellipse class="cls-3" cx="326.09" cy="174.38" rx="0.97" ry="1.94" transform="translate(-78.22 7.9) rotate(-21.17)"/><path class="cls-7" d="M325.18,176.27l0,0a3.77,3.77,0,0,1-1-2.72.18.18,0,0,1,.19-.17.18.18,0,0,1,.17.19,3.4,3.4,0,0,0,.86,2.47.18.18,0,0,1-.22.28Z" transform="translate(-37.25 -121.65)"/><path class="cls-6" d="M297.41,167.5s.49-4.64-.75-6.08a2,2,0,0,1-.6-1.52c.09-.66,1.2-1.3,2.15-1.47a4.16,4.16,0,0,1,2.23.22,1,1,0,0,1,.78,1.08c0,.49-.45.84-.55,1.15a4.93,4.93,0,0,0-.31,1.92c.05,1.48.4,3.18,1.05,3.73C302.25,167.23,297.41,167.5,297.41,167.5Z" transform="translate(-37.25 -121.65)"/><ellipse class="cls-3" cx="298.55" cy="159.88" rx="1.94" ry="0.97" transform="translate(-61.92 -62.87) rotate(-10.8)"/><path class="cls-7" d="M300.25,161.11l0,0a3.77,3.77,0,0,1-2.85.45.18.18,0,0,1-.14-.21.18.18,0,0,1,.22-.14,3.41,3.41,0,0,0,2.58-.4.18.18,0,0,1,.25.06A.19.19,0,0,1,300.25,161.11Z" transform="translate(-37.25 -121.65)"/><path class="cls-6" d="M309.27,197s0,4.67,1.36,6a2,2,0,0,1,.75,1.46c0,.67-1.06,1.42-2,1.68a4.16,4.16,0,0,1-2.24,0c-.62-.16-.88-.51-.89-1s.37-.88.43-1.2a4.94,4.94,0,0,0,.11-1.95c-.2-1.46-.71-3.12-1.42-3.6C304.48,197.79,309.27,197,309.27,197Z" transform="translate(-37.25 -121.65)"/><ellipse class="cls-3" cx="308.9" cy="204.73" rx="1.94" ry="0.97" transform="translate(-82.82 -25.01) rotate(-16.58)"/><path class="cls-7" d="M307.09,203.68l0,0a3.78,3.78,0,0,1,2.79-.73.18.18,0,0,1,0,.36,3.39,3.39,0,0,0-2.53.66.18.18,0,0,1-.26-.24Z" transform="translate(-37.25 -121.65)"/><path class="cls-6" d="M289.85,189.07s-4.62-.65-6.1.54a2,2,0,0,1-1.54.54c-.66-.11-1.26-1.24-1.39-2.2a4.16,4.16,0,0,1,.29-2.22,1,1,0,0,1,1.11-.75c.49.06.83.48,1.13.59a4.9,4.9,0,0,0,1.91.37c1.48,0,3.19-.29,3.76-.92C289.75,184.23,289.85,189.07,289.85,189.07Z" transform="translate(-37.25 -121.65)"/><ellipse class="cls-3" cx="282.28" cy="187.67" rx="0.97" ry="1.94" transform="translate(-62.68 -76.17) rotate(-8.82)"/><path class="cls-7" d="M283.56,186l0,0a3.77,3.77,0,0,1,.35,2.87.18.18,0,0,1-.22.13.18.18,0,0,1-.13-.22,3.4,3.4,0,0,0-.31-2.59.18.18,0,0,1,.07-.25A.18.18,0,0,1,283.56,186Z" transform="translate(-37.25 -121.65)"/><path class="cls-6" d="M301.46,199.12s-1.61,3.69-1,5.19a1.77,1.77,0,0,1,.09,1.41c-.25.52-1.33.76-2.16.64a3.6,3.6,0,0,1-1.77-.76.86.86,0,0,1-.36-1.1c.17-.39.59-.57.75-.8a4.24,4.24,0,0,0,.76-1.5c.34-1.23.5-2.71.11-3.34C297.42,198.07,301.46,199.12,301.46,199.12Z" transform="translate(-37.25 -121.65)"/><ellipse class="cls-3" cx="298.53" cy="205.08" rx="0.84" ry="1.67" transform="translate(21.99 355.31) rotate(-83.13)"/><path class="cls-7" d="M297.46,203.63l0,0A3.26,3.26,0,0,1,300,204a.16.16,0,0,1,.05.21.16.16,0,0,1-.21.05,2.93,2.93,0,0,0-2.22-.35.16.16,0,0,1-.19-.11A.16.16,0,0,1,297.46,203.63Z" transform="translate(-37.25 -121.65)"/><path class="cls-6" d="M306.62,165.82s1.19-3.85.38-5.27a1.77,1.77,0,0,1-.25-1.39c.19-.55,1.23-.9,2.07-.89a3.59,3.59,0,0,1,1.85.56.86.86,0,0,1,.48,1c-.12.41-.52.64-.66.88a4.28,4.28,0,0,0-.58,1.58c-.2,1.26-.19,2.75.27,3.33S306.62,165.82,306.62,165.82Z" transform="translate(-37.25 -121.65)"/><ellipse class="cls-3" cx="308.85" cy="159.56" rx="0.84" ry="1.67" transform="translate(110.2 345.8) rotate(-89.66)"/><path class="cls-7" d="M310.08,160.88l0,0a3.26,3.26,0,0,1-2.49-.1.16.16,0,1,1,.13-.28,2.93,2.93,0,0,0,2.25.09.15.15,0,0,1,.15.27Z" transform="translate(-37.25 -121.65)"/><path class="cls-6" d="M288.67,180.31s-3.7-1.57-5.2-.91a1.77,1.77,0,0,1-1.41.11c-.52-.24-.77-1.32-.67-2.15a3.61,3.61,0,0,1,.74-1.78.86.86,0,0,1,1.09-.37c.4.16.58.59.81.74a4.25,4.25,0,0,0,1.51.74c1.23.33,2.72.47,3.34.07C289.67,176.25,288.67,180.31,288.67,180.31Z" transform="translate(-37.25 -121.65)"/><ellipse class="cls-3" cx="282.68" cy="177.45" rx="1.67" ry="0.84" transform="translate(38.59 317.76) rotate(-83.82)"/><path class="cls-7" d="M284.12,176.36l0,0a3.26,3.26,0,0,1-.35,2.47.16.16,0,0,1-.27-.16,2.94,2.94,0,0,0,.32-2.23.16.16,0,0,1,.28-.12Z" transform="translate(-37.25 -121.65)"/><path class="cls-7" d="M296.06,191.77a2,2,0,0,1,.31,2.69c-.62.59-1.75.35-2.54-.54a2,2,0,0,1-.3-2.69C294.14,190.63,295.27,190.87,296.06,191.77Z" transform="translate(-37.25 -121.65)"/><path class="cls-17" d="M295.3,190.24a3.6,3.6,0,0,1,2.32,2.76" transform="translate(-37.25 -121.65)"/><path class="cls-17" d="M295.3,195.53a3.52,3.52,0,0,1-2.71-2.34" transform="translate(-37.25 -121.65)"/><path class="cls-7" d="M316.06,172c.71.73.84,1.73.28,2.22a1.78,1.78,0,0,1-2.31-.45c-.71-.73-.84-1.73-.28-2.22A1.78,1.78,0,0,1,316.06,172Z" transform="translate(-37.25 -121.65)"/><path class="cls-18" d="M315.37,170.76a3.11,3.11,0,0,1,2.11,2.27" transform="translate(-37.25 -121.65)"/><path class="cls-18" d="M315.37,175.11a3.19,3.19,0,0,1-2.46-1.92" transform="translate(-37.25 -121.65)"/><path class="cls-7" d="M303.58,194.93c.77.19,1.26.79,1.09,1.34a1.37,1.37,0,0,1-1.7.66c-.77-.19-1.26-.79-1.09-1.34A1.37,1.37,0,0,1,303.58,194.93Z" transform="translate(-37.25 -121.65)"/><path class="cls-19" d="M302.62,194.39a2.41,2.41,0,0,1,2.31.62" transform="translate(-37.25 -121.65)"/><path class="cls-19" d="M304.4,197.24A2.46,2.46,0,0,1,302,197" transform="translate(-37.25 -121.65)"/><path class="cls-7" d="M303.6,188.44a1.81,1.81,0,0,1,2,1.31,1.46,1.46,0,0,1-1.33,1.74,1.81,1.81,0,0,1-2-1.32A1.45,1.45,0,0,1,303.6,188.44Z" transform="translate(-37.25 -121.65)"/><path class="cls-20" d="M302.25,188.17a2.27,2.27,0,0,1,2.8-.27" transform="translate(-37.25 -121.65)"/><path class="cls-20" d="M306,191.23a2.24,2.24,0,0,1-2.65.83" transform="translate(-37.25 -121.65)"/><path class="cls-7" d="M307.38,171.89a1.82,1.82,0,0,1,2,1.38,1.46,1.46,0,0,1-1.39,1.69,1.81,1.81,0,0,1-2-1.39A1.46,1.46,0,0,1,307.38,171.89Z" transform="translate(-37.25 -121.65)"/><path class="cls-20" d="M306,171.57a2.27,2.27,0,0,1,2.81-.17" transform="translate(-37.25 -121.65)"/><path class="cls-20" d="M309.64,174.76a2.24,2.24,0,0,1-2.68.74" transform="translate(-37.25 -121.65)"/><path class="cls-7" d="M291.39,182c.27.74,0,1.48-.5,1.65s-1.22-.3-1.49-1,0-1.48.51-1.65S291.12,181.27,291.39,182Z" transform="translate(-37.25 -121.65)"/><path class="cls-19" d="M291.3,180.92a2.41,2.41,0,0,1,.77,2.27" transform="translate(-37.25 -121.65)"/><path class="cls-19" d="M289.93,184a2.46,2.46,0,0,1-1.13-2.13" transform="translate(-37.25 -121.65)"/><path class="cls-7" d="M299.22,168.64c1.29-.48,2.6-.23,2.93.55s-.44,1.8-1.73,2.28-2.6.23-2.93-.55S297.93,169.12,299.22,168.64Z" transform="translate(-37.25 -121.65)"/><path class="cls-21" d="M297.29,168.89a4.75,4.75,0,0,1,3.93-1.37" transform="translate(-37.25 -121.65)"/><path class="cls-21" d="M302.78,170.54a4.6,4.6,0,0,1-3.67,1.88" transform="translate(-37.25 -121.65)"/><ellipse class="cls-7" cx="312.79" cy="193.17" rx="2.92" ry="2.11" transform="translate(-92.06 67.26) rotate(-31.03)"/><path class="cls-22" d="M309.51,192a4.87,4.87,0,0,1,4.23-2.42" transform="translate(-37.25 -121.65)"/><path class="cls-22" d="M316.39,193.39a4.87,4.87,0,0,1-3.79,3.06" transform="translate(-37.25 -121.65)"/><path class="cls-7" d="M314.94,182.75a2.87,2.87,0,0,1,2.62-2.83c1.3.05,2.23,1.4,2.08,3a2.87,2.87,0,0,1-2.62,2.83C315.72,185.71,314.79,184.36,314.94,182.75Z" transform="translate(-37.25 -121.65)"/><path class="cls-23" d="M314.07,184.93a4.48,4.48,0,0,1,.57-4.88" transform="translate(-37.25 -121.65)"/><path class="cls-23" d="M319.85,180a4.43,4.43,0,0,1,.3,4.87" transform="translate(-37.25 -121.65)"/><path class="cls-24" d="M296.87,181.85s3-3,5,1.85" transform="translate(-37.25 -121.65)"/><ellipse class="cls-16" cx="295.18" cy="178.05" rx="1.6" ry="1.29" transform="translate(50.2 331.5) rotate(-84.04)"/><line class="cls-24" x1="258.24" y1="54.15" x2="259.47" y2="56.42"/><ellipse class="cls-16" cx="306.27" cy="182.14" rx="1.73" ry="1.39" transform="translate(55.98 346.14) rotate(-84.02)"/><line class="cls-24" x1="267.16" y1="59.35" x2="270.42" y2="58.18"/><circle class="cls-6" cx="75.24" cy="47.47" r="17.79"/><path class="cls-6" d="M104.79,155s-5-3.42-5.39-5.86a2.66,2.66,0,0,0-1-1.88c-.73-.47-2.3.09-3.27.9a5.41,5.41,0,0,0-1.66,2.39,1.3,1.3,0,0,0,.41,1.69c.53.37,1.21.26,1.6.42A6.44,6.44,0,0,1,97.64,154c1.42,1.3,2.81,3.07,2.81,4.18C100.46,159.59,104.79,155,104.79,155Z" transform="translate(-37.25 -121.65)"/><ellipse class="cls-3" cx="96.28" cy="149.73" rx="2.52" ry="1.26" transform="translate(-109.9 -28.07) rotate(-38.87)"/><path class="cls-7" d="M96.07,152.45h.07A4.89,4.89,0,0,0,99,150a.23.23,0,1,0-.41-.21A4.44,4.44,0,0,1,96,152a.23.23,0,0,0,.07.46Z" transform="translate(-37.25 -121.65)"/><path class="cls-6" d="M97.67,169.12s-5.18,3.16-7.56,2.51a2.65,2.65,0,0,0-2.12.15c-.73.47-.86,2.14-.52,3.35a5.4,5.4,0,0,0,1.5,2.5,1.3,1.3,0,0,0,1.71.32c.55-.33.74-1,1-1.28a6.44,6.44,0,0,1,2.09-1.44c1.77-.76,4-1.3,5-.85C100.05,174.95,97.67,169.12,97.67,169.12Z" transform="translate(-37.25 -121.65)"/><ellipse class="cls-3" cx="89.35" cy="174.71" rx="1.26" ry="2.52" transform="matrix(0.97, -0.25, 0.25, 0.97, -78.44, -93.45)"/><path class="cls-7" d="M91.75,176a.19.19,0,0,0,0-.07,4.89,4.89,0,0,0-1.07-3.6.23.23,0,0,0-.33,0,.24.24,0,0,0,0,.33,4.43,4.43,0,0,1,1,3.25.23.23,0,0,0,.2.26A.24.24,0,0,0,91.75,176Z" transform="translate(-37.25 -121.65)"/><path class="cls-6" d="M102.55,177.74s-3.18,5.16-5.6,5.66a2.66,2.66,0,0,0-1.83,1.09c-.43.75.2,2.29,1.05,3.22a5.4,5.4,0,0,0,2.47,1.54,1.3,1.3,0,0,0,1.67-.49c.34-.54.2-1.23.34-1.61a6.44,6.44,0,0,1,1.21-2.23c1.23-1.48,2.93-3,4-3C107.32,181.86,102.55,177.74,102.55,177.74Z" transform="translate(-37.25 -121.65)"/><ellipse class="cls-3" cx="97.68" cy="186.5" rx="1.26" ry="2.52" transform="translate(-136.41 -9.83) rotate(-41.58)"/><path class="cls-7" d="M100.4,186.58a.22.22,0,0,0,0-.07,4.9,4.9,0,0,0-2.58-2.72.23.23,0,0,0-.31.12.24.24,0,0,0,.12.31,4.43,4.43,0,0,1,2.34,2.46.24.24,0,0,0,.45-.09Z" transform="translate(-37.25 -121.65)"/><path class="cls-6" d="M125.77,161.08s2.73-5.42,5.09-6.12a2.67,2.67,0,0,0,1.73-1.25c.37-.79-.39-2.27-1.32-3.12a5.41,5.41,0,0,0-2.59-1.33,1.3,1.3,0,0,0-1.62.63c-.3.57-.1,1.24-.21,1.64a6.44,6.44,0,0,1-1,2.32c-1.1,1.58-2.67,3.19-3.77,3.34C120.66,157.38,125.77,161.08,125.77,161.08Z" transform="translate(-37.25 -121.65)"/><ellipse class="cls-3" cx="129.88" cy="151.94" rx="1.26" ry="2.52" transform="translate(-106.98 19.68) rotate(-46.43)"/><path class="cls-7" d="M127.16,152.09a.19.19,0,0,0,0,.07,4.89,4.89,0,0,0,2.8,2.5.23.23,0,1,0,.16-.44A4.42,4.42,0,0,1,127.6,152a.24.24,0,0,0-.45.13Z" transform="translate(-37.25 -121.65)"/><path class="cls-6" d="M121.26,182.13s5.55,2.44,6.38,4.77a2.65,2.65,0,0,0,1.33,1.66c.8.33,2.25-.51,3-1.48a5.4,5.4,0,0,0,1.19-2.66,1.3,1.3,0,0,0-.72-1.58c-.59-.27-1.24,0-1.65-.12a6.41,6.41,0,0,1-2.37-.9c-1.63-1-3.33-2.5-3.53-3.59C124.68,176.84,121.26,182.13,121.26,182.13Z" transform="translate(-37.25 -121.65)"/><ellipse class="cls-3" cx="130.59" cy="185.76" rx="2.52" ry="1.26" transform="translate(-132.7 42.48) rotate(-49.42)"/><path class="cls-7" d="M130.31,183.05l-.07,0a4.9,4.9,0,0,0-2.35,2.93.23.23,0,0,0,.45.13,4.43,4.43,0,0,1,2.12-2.65.23.23,0,0,0-.15-.44Z" transform="translate(-37.25 -121.65)"/><path class="cls-6" d="M99.36,160.91s-4.65-.36-5.84-1.83a2,2,0,0,0-1.39-.86c-.67,0-1.5.94-1.83,1.85a4.17,4.17,0,0,0-.19,2.23c.11.64.44.92.92,1s.91-.29,1.23-.33a4.94,4.94,0,0,1,2,0c1.44.32,3.05,1,3.48,1.7C98.23,165.61,99.36,160.91,99.36,160.91Z" transform="translate(-37.25 -121.65)"/><ellipse class="cls-3" cx="91.66" cy="160.65" rx="1.94" ry="0.97" transform="translate(-128.5 66.5) rotate(-68.84)"/><path class="cls-7" d="M92.56,162.55l0,0a3.77,3.77,0,0,0,1-2.72.18.18,0,0,0-.19-.17.18.18,0,0,0-.17.19,3.41,3.41,0,0,1-.86,2.47.18.18,0,0,0,.22.28Z" transform="translate(-37.25 -121.65)"/><path class="cls-6" d="M120.34,153.77s-.49-4.64.75-6.08a2,2,0,0,0,.6-1.52c-.09-.66-1.2-1.3-2.15-1.47a4.16,4.16,0,0,0-2.23.22,1,1,0,0,0-.78,1.08c0,.49.45.84.55,1.15a5,5,0,0,1,.31,1.92c-.06,1.48-.4,3.18-1.05,3.73C115.5,153.5,120.34,153.77,120.34,153.77Z" transform="translate(-37.25 -121.65)"/><ellipse class="cls-3" cx="119.2" cy="146.15" rx="0.97" ry="1.94" transform="translate(-83.96 114.2) rotate(-79.2)"/><path class="cls-7" d="M117.5,147.38l0,0a3.77,3.77,0,0,0,2.85.45.18.18,0,0,0,.14-.21.18.18,0,0,0-.22-.14,3.41,3.41,0,0,1-2.58-.4.18.18,0,0,0-.25.06A.19.19,0,0,0,117.5,147.38Z" transform="translate(-37.25 -121.65)"/><path class="cls-6" d="M108.48,183.31s0,4.67-1.36,6a2,2,0,0,0-.75,1.46c0,.67,1.06,1.42,2,1.68a4.16,4.16,0,0,0,2.24,0c.63-.16.88-.51.89-1s-.37-.88-.43-1.2a5,5,0,0,1-.11-1.95c.2-1.46.71-3.12,1.42-3.6C113.27,184.07,108.48,183.31,108.48,183.31Z" transform="translate(-37.25 -121.65)"/><ellipse class="cls-3" cx="108.85" cy="191.01" rx="0.97" ry="1.94" transform="translate(-142.53 119.18) rotate(-73.42)"/><path class="cls-7" d="M110.66,190l0,0a3.78,3.78,0,0,0-2.79-.73.18.18,0,0,0-.16.2.18.18,0,0,0,.2.16,3.39,3.39,0,0,1,2.53.66.18.18,0,0,0,.25,0A.18.18,0,0,0,110.66,190Z" transform="translate(-37.25 -121.65)"/><path class="cls-6" d="M127.89,175.35s4.62-.65,6.1.54a2,2,0,0,0,1.54.54c.66-.11,1.26-1.24,1.39-2.2a4.17,4.17,0,0,0-.29-2.22,1,1,0,0,0-1.11-.75c-.49.06-.83.48-1.13.59a4.91,4.91,0,0,1-1.91.37c-1.48,0-3.19-.29-3.76-.92C128,170.51,127.89,175.35,127.89,175.35Z" transform="translate(-37.25 -121.65)"/><ellipse class="cls-3" cx="135.47" cy="173.95" rx="1.94" ry="0.97" transform="translate(-94.44 159.51) rotate(-81.18)"/><path class="cls-7" d="M134.18,172.29l0,0a3.77,3.77,0,0,0-.35,2.87.18.18,0,0,0,.22.13.18.18,0,0,0,.13-.22,3.41,3.41,0,0,1,.31-2.59.18.18,0,0,0-.06-.25A.19.19,0,0,0,134.18,172.29Z" transform="translate(-37.25 -121.65)"/><path class="cls-6" d="M116.28,185.4s1.62,3.69,1,5.19a1.76,1.76,0,0,0-.09,1.41c.25.52,1.33.76,2.15.64a3.6,3.6,0,0,0,1.77-.76.86.86,0,0,0,.36-1.1c-.17-.39-.59-.57-.75-.8a4.25,4.25,0,0,1-.76-1.5c-.34-1.23-.5-2.71-.11-3.34C120.33,184.35,116.28,185.4,116.28,185.4Z" transform="translate(-37.25 -121.65)"/><ellipse class="cls-3" cx="119.21" cy="191.36" rx="1.67" ry="0.84" transform="translate(-59.28 -106.02) rotate(-6.87)"/><path class="cls-7" d="M120.29,189.91l0,0a3.26,3.26,0,0,0-2.46.38.16.16,0,0,0,.16.27,2.94,2.94,0,0,1,2.22-.35.16.16,0,0,0,.12-.28Z" transform="translate(-37.25 -121.65)"/><path class="cls-6" d="M111.13,152.09s-1.19-3.85-.38-5.27a1.76,1.76,0,0,0,.25-1.39c-.19-.55-1.23-.9-2.07-.89a3.58,3.58,0,0,0-1.85.56.86.86,0,0,0-.48,1c.12.41.52.64.65.88a4.26,4.26,0,0,1,.58,1.58c.2,1.26.19,2.75-.27,3.33S111.13,152.09,111.13,152.09Z" transform="translate(-37.25 -121.65)"/><ellipse class="cls-3" cx="108.9" cy="145.84" rx="1.67" ry="0.84" transform="translate(-38.12 -120.99) rotate(-0.34)"/><path class="cls-7" d="M107.66,147.16l0,0a3.26,3.26,0,0,0,2.49-.1.16.16,0,1,0-.13-.28,2.94,2.94,0,0,1-2.25.09.16.16,0,0,0-.15.27Z" transform="translate(-37.25 -121.65)"/><path class="cls-6" d="M129.07,166.59s3.7-1.57,5.2-.91a1.77,1.77,0,0,0,1.41.11c.52-.24.77-1.32.67-2.15a3.61,3.61,0,0,0-.74-1.78.86.86,0,0,0-1.09-.37c-.4.16-.58.59-.81.74a4.24,4.24,0,0,1-1.51.74c-1.23.33-2.72.47-3.34.07C128.08,162.53,129.07,166.59,129.07,166.59Z" transform="translate(-37.25 -121.65)"/><ellipse class="cls-3" cx="135.07" cy="163.73" rx="0.84" ry="1.67" transform="translate(-54.04 -106.21) rotate(-6.16)"/><path class="cls-7" d="M133.63,162.64l0,0a3.25,3.25,0,0,0,.35,2.47.16.16,0,0,0,.21.06.16.16,0,0,0,.06-.21,2.94,2.94,0,0,1-.32-2.23.15.15,0,0,0-.28-.12Z" transform="translate(-37.25 -121.65)"/><path class="cls-7" d="M121.69,178a2,2,0,0,0-.31,2.69c.62.59,1.75.35,2.54-.54a2,2,0,0,0,.3-2.69C123.61,176.91,122.47,177.15,121.69,178Z" transform="translate(-37.25 -121.65)"/><path class="cls-17" d="M122.44,176.52a3.59,3.59,0,0,0-2.32,2.76" transform="translate(-37.25 -121.65)"/><path class="cls-17" d="M122.44,181.81a3.52,3.52,0,0,0,2.71-2.34" transform="translate(-37.25 -121.65)"/><path class="cls-7" d="M101.69,158.29c-.71.73-.84,1.73-.28,2.22a1.78,1.78,0,0,0,2.31-.45c.71-.73.84-1.73.28-2.22A1.77,1.77,0,0,0,101.69,158.29Z" transform="translate(-37.25 -121.65)"/><path class="cls-18" d="M102.37,157a3.11,3.11,0,0,0-2.11,2.27" transform="translate(-37.25 -121.65)"/><path class="cls-18" d="M102.37,161.39a3.19,3.19,0,0,0,2.46-1.92" transform="translate(-37.25 -121.65)"/><path class="cls-7" d="M114.17,181.2c-.77.19-1.26.79-1.09,1.34a1.37,1.37,0,0,0,1.7.66c.77-.19,1.26-.79,1.09-1.34A1.37,1.37,0,0,0,114.17,181.2Z" transform="translate(-37.25 -121.65)"/><path class="cls-19" d="M115.13,180.66a2.41,2.41,0,0,0-2.31.62" transform="translate(-37.25 -121.65)"/><path class="cls-19" d="M113.34,183.51a2.46,2.46,0,0,0,2.4-.25" transform="translate(-37.25 -121.65)"/><path class="cls-7" d="M114.14,174.72a1.82,1.82,0,0,0-2,1.31,1.46,1.46,0,0,0,1.33,1.74,1.81,1.81,0,0,0,2-1.32A1.46,1.46,0,0,0,114.14,174.72Z" transform="translate(-37.25 -121.65)"/><path class="cls-20" d="M115.49,174.45a2.27,2.27,0,0,0-2.8-.27" transform="translate(-37.25 -121.65)"/><path class="cls-20" d="M111.78,177.51a2.23,2.23,0,0,0,2.65.83" transform="translate(-37.25 -121.65)"/><path class="cls-7" d="M110.37,158.17a1.81,1.81,0,0,0-2,1.38,1.46,1.46,0,0,0,1.39,1.69,1.81,1.81,0,0,0,2-1.39A1.45,1.45,0,0,0,110.37,158.17Z" transform="translate(-37.25 -121.65)"/><path class="cls-20" d="M111.71,157.84a2.27,2.27,0,0,0-2.81-.17" transform="translate(-37.25 -121.65)"/><path class="cls-20" d="M108.1,161a2.24,2.24,0,0,0,2.68.74" transform="translate(-37.25 -121.65)"/><path class="cls-7" d="M126.36,168.29c-.27.74,0,1.48.5,1.65s1.22-.3,1.49-1,0-1.48-.51-1.65S126.63,167.55,126.36,168.29Z" transform="translate(-37.25 -121.65)"/><path class="cls-19" d="M126.44,167.19a2.41,2.41,0,0,0-.77,2.27" transform="translate(-37.25 -121.65)"/><path class="cls-19" d="M127.82,170.26a2.46,2.46,0,0,0,1.13-2.13" transform="translate(-37.25 -121.65)"/><path class="cls-7" d="M118.53,154.92c-1.29-.48-2.6-.23-2.93.54s.44,1.8,1.73,2.28,2.6.23,2.93-.55S119.81,155.4,118.53,154.92Z" transform="translate(-37.25 -121.65)"/><path class="cls-21" d="M120.45,155.17a4.75,4.75,0,0,0-3.93-1.37" transform="translate(-37.25 -121.65)"/><path class="cls-21" d="M115,156.82a4.6,4.6,0,0,0,3.67,1.88" transform="translate(-37.25 -121.65)"/><ellipse class="cls-7" cx="104.96" cy="179.44" rx="2.11" ry="2.92" transform="translate(-140.16 55.22) rotate(-58.97)"/><path class="cls-22" d="M108.23,178.26a4.87,4.87,0,0,0-4.23-2.42" transform="translate(-37.25 -121.65)"/><path class="cls-22" d="M101.35,179.67a4.88,4.88,0,0,0,3.79,3.06" transform="translate(-37.25 -121.65)"/><path class="cls-7" d="M102.81,169a2.87,2.87,0,0,0-2.62-2.83c-1.3.05-2.23,1.4-2.09,3a2.87,2.87,0,0,0,2.62,2.83C102,172,103,170.64,102.81,169Z" transform="translate(-37.25 -121.65)"/><path class="cls-23" d="M103.68,171.2a4.48,4.48,0,0,0-.57-4.88" transform="translate(-37.25 -121.65)"/><path class="cls-23" d="M97.9,166.23a4.42,4.42,0,0,0-.3,4.87" transform="translate(-37.25 -121.65)"/><path class="cls-24" d="M120.88,168.13s-3-3-5,1.85" transform="translate(-37.25 -121.65)"/><ellipse class="cls-16" cx="122.57" cy="164.33" rx="1.29" ry="1.6" transform="translate(-53.65 -108.03) rotate(-5.96)"/><line class="cls-24" x1="85.01" y1="40.43" x2="83.78" y2="42.7"/><ellipse class="cls-16" cx="111.48" cy="168.42" rx="1.39" ry="1.73" transform="translate(-54.17 -109.13) rotate(-5.97)"/><line class="cls-24" x1="76.09" y1="45.62" x2="72.83" y2="44.46"/><circle class="cls-6" cx="342.03" cy="171.91" r="15.1"/><path class="cls-6" d="M372.75,281.59s-4.25-2.91-4.58-5a2.26,2.26,0,0,0-.85-1.59c-.62-.4-2,.08-2.78.76a4.59,4.59,0,0,0-1.41,2,1.11,1.11,0,0,0,.35,1.44c.45.31,1,.22,1.35.36a5.47,5.47,0,0,1,1.84,1.12c1.2,1.1,2.39,2.61,2.39,3.55C369.07,285.47,372.75,281.59,372.75,281.59Z" transform="translate(-37.25 -121.65)"/><ellipse class="cls-3" cx="365.52" cy="277.1" rx="2.14" ry="1.07" transform="translate(-130.21 169.13) rotate(-38.87)"/><path class="cls-7" d="M365.34,279.41h.06a4.16,4.16,0,0,0,2.41-2.08.2.2,0,1,0-.35-.18,3.77,3.77,0,0,1-2.18,1.89.2.2,0,0,0,.06.39Z" transform="translate(-37.25 -121.65)"/><path class="cls-6" d="M366.7,293.56s-4.4,2.68-6.42,2.13a2.25,2.25,0,0,0-1.8.12c-.62.4-.73,1.81-.45,2.85a4.6,4.6,0,0,0,1.27,2.12,1.11,1.11,0,0,0,1.45.27c.47-.28.63-.85.88-1.09a5.52,5.52,0,0,1,1.77-1.22c1.5-.64,3.36-1.11,4.22-.72C368.73,298.51,366.7,293.56,366.7,293.56Z" transform="translate(-37.25 -121.65)"/><ellipse class="cls-3" cx="359.64" cy="298.31" rx="1.07" ry="2.14" transform="translate(-100.86 -21.31) rotate(-14.61)"/><path class="cls-7" d="M361.67,299.42a.17.17,0,0,0,0-.06,4.15,4.15,0,0,0-.91-3.06.2.2,0,0,0-.28,0,.2.2,0,0,0,0,.28,3.76,3.76,0,0,1,.82,2.76.2.2,0,0,0,.17.22A.2.2,0,0,0,361.67,299.42Z" transform="translate(-37.25 -121.65)"/><path class="cls-6" d="M370.85,300.88s-2.7,4.38-4.75,4.81a2.25,2.25,0,0,0-1.55.93c-.37.64.17,1.95.89,2.74a4.58,4.58,0,0,0,2.09,1.31,1.1,1.1,0,0,0,1.42-.42c.29-.46.17-1,.29-1.37a5.47,5.47,0,0,1,1-1.89c1-1.26,2.49-2.51,3.43-2.55C374.9,304.38,370.85,300.88,370.85,300.88Z" transform="translate(-37.25 -121.65)"/><ellipse class="cls-3" cx="366.71" cy="308.31" rx="1.07" ry="2.14" transform="translate(-149.47 199.38) rotate(-41.58)"/><path class="cls-7" d="M369,308.39a.16.16,0,0,0,0-.06,4.16,4.16,0,0,0-2.19-2.31.2.2,0,0,0-.17.36,3.76,3.76,0,0,1,2,2.09.2.2,0,0,0,.39-.08Z" transform="translate(-37.25 -121.65)"/><path class="cls-6" d="M390.56,286.74s2.32-4.6,4.32-5.19a2.26,2.26,0,0,0,1.47-1.06c.31-.67-.33-1.92-1.12-2.65a4.59,4.59,0,0,0-2.2-1.13,1.1,1.1,0,0,0-1.37.54c-.25.49-.08,1.05-.18,1.39a5.47,5.47,0,0,1-.87,2c-.93,1.34-2.26,2.71-3.2,2.83C386.22,283.6,390.56,286.74,390.56,286.74Z" transform="translate(-37.25 -121.65)"/><ellipse class="cls-3" cx="394.05" cy="278.98" rx="1.07" ry="2.14" transform="translate(-116.91 250.65) rotate(-46.44)"/><path class="cls-7" d="M391.74,279.11a.15.15,0,0,0,0,.06,4.15,4.15,0,0,0,2.38,2.12.2.2,0,0,0,.25-.12.2.2,0,0,0-.12-.26,3.75,3.75,0,0,1-2.15-1.91.2.2,0,0,0-.38.11Z" transform="translate(-37.25 -121.65)"/><path class="cls-6" d="M386.73,304.61s4.71,2.08,5.41,4a2.25,2.25,0,0,0,1.13,1.41c.68.28,1.91-.43,2.59-1.26a4.57,4.57,0,0,0,1-2.26,1.1,1.1,0,0,0-.61-1.34c-.5-.23-1.05,0-1.4-.1a5.44,5.44,0,0,1-2-.76c-1.39-.86-2.82-2.12-3-3C389.64,300.12,386.73,304.61,386.73,304.61Z" transform="translate(-37.25 -121.65)"/><ellipse class="cls-3" cx="394.65" cy="307.69" rx="2.14" ry="1.07" transform="translate(-133.02 285.61) rotate(-49.42)"/><path class="cls-7" d="M394.41,305.39l-.06,0a4.16,4.16,0,0,0-2,2.49.2.2,0,0,0,.38.12,3.75,3.75,0,0,1,1.8-2.25.2.2,0,0,0-.13-.37Z" transform="translate(-37.25 -121.65)"/><path class="cls-6" d="M368.14,286.59s-3.95-.3-5-1.56a1.74,1.74,0,0,0-1.18-.73c-.57,0-1.27.8-1.56,1.57a3.54,3.54,0,0,0-.16,1.9c.1.54.37.78.78.82s.77-.25,1-.28a4.19,4.19,0,0,1,1.66,0c1.23.27,2.59.82,3,1.45C367.18,290.59,368.14,286.59,368.14,286.59Z" transform="translate(-37.25 -121.65)"/><ellipse class="cls-3" cx="361.6" cy="286.38" rx="1.64" ry="0.82" transform="translate(-73.26 398.55) rotate(-68.84)"/><path class="cls-7" d="M362.37,288l0,0a3.2,3.2,0,0,0,.81-2.31.15.15,0,0,0-.16-.15.15.15,0,0,0-.15.16,2.9,2.9,0,0,1-.73,2.09.15.15,0,0,0,.19.24Z" transform="translate(-37.25 -121.65)"/><path class="cls-6" d="M385.95,280.53s-.41-3.94.64-5.16a1.73,1.73,0,0,0,.51-1.29c-.08-.56-1-1.11-1.83-1.25a3.54,3.54,0,0,0-1.89.18.85.85,0,0,0-.67.92c0,.42.38.72.46,1a4.19,4.19,0,0,1,.26,1.63c0,1.25-.34,2.7-.89,3.17S385.95,280.53,385.95,280.53Z" transform="translate(-37.25 -121.65)"/><ellipse class="cls-3" cx="384.98" cy="274.07" rx="0.82" ry="1.64" transform="translate(6.5 479.35) rotate(-79.22)"/><path class="cls-7" d="M383.54,275.11l0,0a3.21,3.21,0,0,0,2.42.38.15.15,0,0,0,.12-.18.16.16,0,0,0-.18-.12,2.89,2.89,0,0,1-2.19-.34.15.15,0,0,0-.21,0A.15.15,0,0,0,383.54,275.11Z" transform="translate(-37.25 -121.65)"/><path class="cls-6" d="M375.88,305.61s0,4-1.15,5.07a1.74,1.74,0,0,0-.64,1.24c0,.57.9,1.2,1.69,1.42a3.51,3.51,0,0,0,1.9,0c.53-.14.75-.43.75-.85s-.31-.75-.37-1a4.19,4.19,0,0,1-.09-1.65c.17-1.24.61-2.65,1.21-3.06C379.94,306.25,375.88,305.61,375.88,305.61Z" transform="translate(-37.25 -121.65)"/><ellipse class="cls-3" cx="376.19" cy="312.15" rx="0.82" ry="1.64" transform="translate(-67.57 461.99) rotate(-73.42)"/><path class="cls-7" d="M377.73,311.25l0,0a3.21,3.21,0,0,0-2.37-.62.15.15,0,0,0,0,.31,2.88,2.88,0,0,1,2.14.56.15.15,0,0,0,.21,0A.16.16,0,0,0,377.73,311.25Z" transform="translate(-37.25 -121.65)"/><path class="cls-6" d="M392.36,298.85s3.92-.55,5.18.46a1.73,1.73,0,0,0,1.31.46c.56-.09,1.07-1.05,1.18-1.87a3.54,3.54,0,0,0-.25-1.88.85.85,0,0,0-.94-.63c-.42.05-.7.41-1,.5a4.13,4.13,0,0,1-1.62.32c-1.25,0-2.71-.24-3.2-.78S392.36,298.85,392.36,298.85Z" transform="translate(-37.25 -121.65)"/><ellipse class="cls-3" cx="398.79" cy="297.66" rx="1.64" ry="0.82" transform="translate(6.19 524.39) rotate(-81.17)"/><path class="cls-7" d="M397.7,296.26l0,0a3.2,3.2,0,0,0-.3,2.43.15.15,0,0,0,.19.11.15.15,0,0,0,.11-.19,2.89,2.89,0,0,1,.26-2.2.15.15,0,0,0-.06-.21A.16.16,0,0,0,397.7,296.26Z" transform="translate(-37.25 -121.65)"/><path class="cls-6" d="M382.5,307.38s1.37,3.13.83,4.41a1.5,1.5,0,0,0-.08,1.2c.21.44,1.13.64,1.83.55a3.05,3.05,0,0,0,1.51-.65.73.73,0,0,0,.31-.93c-.14-.33-.5-.49-.63-.68a3.6,3.6,0,0,1-.64-1.28,4.47,4.47,0,0,1-.1-2.83C385.94,306.49,382.5,307.38,382.5,307.38Z" transform="translate(-37.25 -121.65)"/><ellipse class="cls-3" cx="384.99" cy="312.44" rx="1.42" ry="0.71" transform="translate(-71.91 -73.27) rotate(-6.88)"/><path class="cls-7" d="M385.91,311.21l0,0a2.78,2.78,0,0,0-2.09.32.13.13,0,0,0,.13.23,2.49,2.49,0,0,1,1.89-.3.13.13,0,0,0,.16-.09A.13.13,0,0,0,385.91,311.21Z" transform="translate(-37.25 -121.65)"/><path class="cls-6" d="M378.13,279.11s-1-3.27-.32-4.47a1.5,1.5,0,0,0,.21-1.18c-.16-.46-1-.77-1.75-.75a3,3,0,0,0-1.57.47.73.73,0,0,0-.41.89c.1.35.45.54.56.75a3.64,3.64,0,0,1,.49,1.34,4.47,4.47,0,0,1-.23,2.83C374.62,279.6,378.13,279.11,378.13,279.11Z" transform="translate(-37.25 -121.65)"/><ellipse class="cls-3" cx="376.23" cy="273.8" rx="1.42" ry="0.71" transform="translate(-38.85 -119.44) rotate(-0.34)"/><path class="cls-7" d="M375.19,274.92l0,0a2.77,2.77,0,0,0,2.11-.08.13.13,0,0,0,.07-.17.13.13,0,0,0-.17-.07,2.49,2.49,0,0,1-1.91.08.13.13,0,0,0-.13.23Z" transform="translate(-37.25 -121.65)"/><path class="cls-6" d="M393.36,291.42s3.15-1.33,4.41-.77a1.5,1.5,0,0,0,1.2.09c.44-.2.65-1.12.57-1.82a3.07,3.07,0,0,0-.63-1.52.73.73,0,0,0-.93-.32c-.34.14-.49.5-.69.63a3.6,3.6,0,0,1-1.28.63,4.46,4.46,0,0,1-2.84.06C392.52,288,393.36,291.42,393.36,291.42Z" transform="translate(-37.25 -121.65)"/><ellipse class="cls-3" cx="398.46" cy="288.99" rx="0.71" ry="1.42" transform="translate(-65.9 -77.33) rotate(-6.15)"/><path class="cls-7" d="M397.23,288.06l0,0a2.77,2.77,0,0,0,.3,2.09.13.13,0,0,0,.18,0,.13.13,0,0,0,0-.18,2.49,2.49,0,0,1-.27-1.89.13.13,0,0,0-.24-.11Z" transform="translate(-37.25 -121.65)"/><path class="cls-7" d="M387.09,301.14a1.73,1.73,0,0,0-.26,2.29c.53.5,1.49.3,2.16-.46a1.73,1.73,0,0,0,.26-2.29C388.72,300.17,387.76,300.38,387.09,301.14Z" transform="translate(-37.25 -121.65)"/><path class="cls-25" d="M387.74,299.84a3.05,3.05,0,0,0-2,2.34" transform="translate(-37.25 -121.65)"/><path class="cls-25" d="M387.74,304.34a3,3,0,0,0,2.3-2" transform="translate(-37.25 -121.65)"/><path class="cls-7" d="M370.11,284.37c-.61.62-.71,1.47-.24,1.88a1.51,1.51,0,0,0,2-.38c.6-.62.71-1.47.23-1.88A1.51,1.51,0,0,0,370.11,284.37Z" transform="translate(-37.25 -121.65)"/><path class="cls-26" d="M370.7,283.3a2.64,2.64,0,0,0-1.79,1.93" transform="translate(-37.25 -121.65)"/><path class="cls-26" d="M370.7,287a2.71,2.71,0,0,0,2.09-1.63" transform="translate(-37.25 -121.65)"/><path class="cls-7" d="M380.71,303.82c-.65.16-1.07.67-.93,1.14a1.16,1.16,0,0,0,1.44.56c.65-.16,1.07-.67.92-1.14A1.16,1.16,0,0,0,380.71,303.82Z" transform="translate(-37.25 -121.65)"/><path class="cls-27" d="M381.52,303.36a2,2,0,0,0-2,.53" transform="translate(-37.25 -121.65)"/><path class="cls-27" d="M380,305.78a2.09,2.09,0,0,0,2-.21" transform="translate(-37.25 -121.65)"/><path class="cls-7" d="M380.69,298.32a1.54,1.54,0,0,0-1.7,1.12,1.24,1.24,0,0,0,1.13,1.48,1.54,1.54,0,0,0,1.7-1.12A1.24,1.24,0,0,0,380.69,298.32Z" transform="translate(-37.25 -121.65)"/><path class="cls-28" d="M381.84,298.08a1.92,1.92,0,0,0-2.38-.23" transform="translate(-37.25 -121.65)"/><path class="cls-28" d="M378.68,300.69a1.9,1.9,0,0,0,2.25.71" transform="translate(-37.25 -121.65)"/><path class="cls-7" d="M377.48,284.26a1.54,1.54,0,0,0-1.66,1.18,1.24,1.24,0,0,0,1.18,1.43,1.54,1.54,0,0,0,1.66-1.18A1.23,1.23,0,0,0,377.48,284.26Z" transform="translate(-37.25 -121.65)"/><path class="cls-28" d="M378.62,284a1.92,1.92,0,0,0-2.38-.15" transform="translate(-37.25 -121.65)"/><path class="cls-28" d="M375.56,286.7a1.9,1.9,0,0,0,2.28.63" transform="translate(-37.25 -121.65)"/><path class="cls-7" d="M391.06,292.86c-.23.63,0,1.26.43,1.4s1-.25,1.27-.89,0-1.26-.43-1.4S391.29,292.23,391.06,292.86Z" transform="translate(-37.25 -121.65)"/><path class="cls-27" d="M391.13,291.93a2,2,0,0,0-.65,1.92" transform="translate(-37.25 -121.65)"/><path class="cls-27" d="M392.3,294.54a2.09,2.09,0,0,0,1-1.81" transform="translate(-37.25 -121.65)"/><path class="cls-7" d="M384.41,281.5c-1.09-.41-2.21-.2-2.49.46s.38,1.53,1.47,1.94,2.21.2,2.49-.46S385.5,281.91,384.41,281.5Z" transform="translate(-37.25 -121.65)"/><path class="cls-29" d="M386,281.72a4,4,0,0,0-3.33-1.17" transform="translate(-37.25 -121.65)"/><path class="cls-29" d="M381.39,283.12a3.91,3.91,0,0,0,3.12,1.6" transform="translate(-37.25 -121.65)"/><ellipse class="cls-7" cx="372.89" cy="302.33" rx="1.79" ry="2.48" transform="translate(-115.67 344.3) rotate(-58.96)"/><path class="cls-30" d="M375.67,301.32a4.14,4.14,0,0,0-3.59-2.05" transform="translate(-37.25 -121.65)"/><path class="cls-30" d="M369.83,302.52a4.14,4.14,0,0,0,3.22,2.6" transform="translate(-37.25 -121.65)"/><path class="cls-7" d="M371.07,293.48a2.44,2.44,0,0,0-2.23-2.41,2.15,2.15,0,0,0-1.77,2.56A2.44,2.44,0,0,0,369.3,296,2.15,2.15,0,0,0,371.07,293.48Z" transform="translate(-37.25 -121.65)"/><path class="cls-31" d="M371.8,295.33a3.8,3.8,0,0,0-.49-4.14" transform="translate(-37.25 -121.65)"/><path class="cls-31" d="M366.9,291.11a3.76,3.76,0,0,0-.25,4.14" transform="translate(-37.25 -121.65)"/><path class="cls-32" d="M386.4,292.72s-2.5-2.56-4.23,1.57" transform="translate(-37.25 -121.65)"/><ellipse class="cls-16" cx="387.84" cy="289.49" rx="1.09" ry="1.36" transform="translate(-65.25 -79.75) rotate(-5.97)"/><line class="cls-32" x1="350.33" y1="165.94" x2="349.28" y2="167.87"/><ellipse class="cls-16" cx="378.43" cy="292.97" rx="1.18" ry="1.47" transform="translate(-65.67 -80.7) rotate(-5.97)"/><line class="cls-32" x1="342.75" y1="170.35" x2="339.99" y2="169.36"/><circle class="cls-6" cx="206.38" cy="173.54" r="14.18"/><path class="cls-6" d="M249.77,283.94s4-2.73,4.3-4.67a2.12,2.12,0,0,1,.8-1.5c.58-.37,1.84.07,2.61.72a4.32,4.32,0,0,1,1.32,1.91,1,1,0,0,1-.33,1.35c-.42.3-1,.21-1.27.34a5.14,5.14,0,0,0-1.73,1c-1.13,1-2.24,2.45-2.24,3.33C253.22,287.59,249.77,283.94,249.77,283.94Z" transform="translate(-37.25 -121.65)"/><ellipse class="cls-3" cx="256.55" cy="279.73" rx="1" ry="2.01" transform="translate(-159.49 182.33) rotate(-51.14)"/><path class="cls-7" d="M256.72,281.9h-.06a3.9,3.9,0,0,1-2.27-2,.19.19,0,1,1,.33-.17,3.54,3.54,0,0,0,2,1.77.19.19,0,0,1-.06.36Z" transform="translate(-37.25 -121.65)"/><path class="cls-6" d="M255.44,295.19s4.13,2.52,6,2a2.11,2.11,0,0,1,1.69.12c.58.38.69,1.7.42,2.67a4.31,4.31,0,0,1-1.19,2,1,1,0,0,1-1.36.25c-.44-.26-.59-.8-.83-1a5.13,5.13,0,0,0-1.66-1.15c-1.41-.61-3.15-1-4-.67C253.54,299.84,255.44,295.19,255.44,295.19Z" transform="translate(-37.25 -121.65)"/><ellipse class="cls-3" cx="262.07" cy="299.64" rx="2.01" ry="1" transform="translate(-131.25 355.99) rotate(-75.39)"/><path class="cls-7" d="M260.17,300.69a.16.16,0,0,1,0-.06,3.9,3.9,0,0,1,.85-2.87.19.19,0,0,1,.26,0,.19.19,0,0,1,0,.26,3.53,3.53,0,0,0-.77,2.59.19.19,0,0,1-.36.1Z" transform="translate(-37.25 -121.65)"/><path class="cls-6" d="M251.55,302.06s2.54,4.12,4.46,4.51a2.12,2.12,0,0,1,1.46.87c.34.6-.16,1.83-.84,2.57a4.3,4.3,0,0,1-2,1.23,1,1,0,0,1-1.33-.39c-.28-.43-.16-1-.28-1.29a5.1,5.1,0,0,0-1-1.78c-1-1.18-2.33-2.36-3.22-2.4C247.75,305.34,251.55,302.06,251.55,302.06Z" transform="translate(-37.25 -121.65)"/><ellipse class="cls-3" cx="255.44" cy="309.04" rx="2.01" ry="1" transform="translate(-182.51 173.36) rotate(-48.42)"/><path class="cls-7" d="M253.27,309.11a.13.13,0,0,1,0-.06,3.9,3.9,0,0,1,2.06-2.17.19.19,0,0,1,.25.09.19.19,0,0,1-.09.25,3.54,3.54,0,0,0-1.87,2,.19.19,0,0,1-.24.11A.19.19,0,0,1,253.27,309.11Z" transform="translate(-37.25 -121.65)"/><path class="cls-6" d="M233,288.78s-2.18-4.32-4.06-4.88a2.12,2.12,0,0,1-1.38-1c-.29-.63.31-1.81,1.05-2.49a4.3,4.3,0,0,1,2.07-1.06,1,1,0,0,1,1.29.5c.24.46.08,1,.16,1.31A5.14,5.14,0,0,0,233,283c.87,1.26,2.13,2.54,3,2.66C237.11,285.83,233,288.78,233,288.78Z" transform="translate(-37.25 -121.65)"/><ellipse class="cls-3" cx="229.76" cy="281.49" rx="2.01" ry="1" transform="translate(-167.98 114.27) rotate(-43.57)"/><path class="cls-7" d="M231.93,281.61a.15.15,0,0,1,0,.05,3.9,3.9,0,0,1-2.24,2,.19.19,0,0,1-.13-.35,3.52,3.52,0,0,0,2-1.79.19.19,0,0,1,.25-.09A.19.19,0,0,1,231.93,281.61Z" transform="translate(-37.25 -121.65)"/><path class="cls-6" d="M236.64,305.56s-4.43,1.95-5.08,3.8a2.12,2.12,0,0,1-1.06,1.32c-.64.26-1.79-.41-2.43-1.18a4.29,4.29,0,0,1-1-2.12,1,1,0,0,1,.57-1.26c.47-.21,1,0,1.31-.1a5.11,5.11,0,0,0,1.89-.71c1.3-.81,2.65-2,2.82-2.86C233.91,301.35,236.64,305.56,236.64,305.56Z" transform="translate(-37.25 -121.65)"/><ellipse class="cls-3" cx="229.19" cy="308.46" rx="1" ry="2.01" transform="translate(-182.79 101.65) rotate(-40.58)"/><path class="cls-7" d="M229.42,306.3l.05,0a3.9,3.9,0,0,1,1.87,2.34.19.19,0,0,1-.36.11,3.53,3.53,0,0,0-1.69-2.12.19.19,0,0,1-.08-.25A.19.19,0,0,1,229.42,306.3Z" transform="translate(-37.25 -121.65)"/><path class="cls-6" d="M254.09,288.64s3.71-.29,4.66-1.46a1.63,1.63,0,0,1,1.11-.69c.53,0,1.19.75,1.46,1.48a3.31,3.31,0,0,1,.15,1.78c-.09.51-.35.74-.74.77s-.73-.24-1-.26a3.93,3.93,0,0,0-1.55,0,4.86,4.86,0,0,0-2.77,1.36C255,292.39,254.09,288.64,254.09,288.64Z" transform="translate(-37.25 -121.65)"/><ellipse class="cls-3" cx="260.23" cy="288.44" rx="0.77" ry="1.54" transform="translate(-123.85 -8.21) rotate(-21.17)"/><path class="cls-7" d="M259.51,289.95l0,0a3,3,0,0,1-.76-2.17.14.14,0,0,1,.15-.14.15.15,0,0,1,.14.15,2.71,2.71,0,0,0,.68,2,.14.14,0,0,1,0,.2A.15.15,0,0,1,259.51,289.95Z" transform="translate(-37.25 -121.65)"/><path class="cls-6" d="M237.37,283s.39-3.7-.6-4.84a1.62,1.62,0,0,1-.48-1.21c.07-.53,1-1,1.72-1.17a3.32,3.32,0,0,1,1.78.17.8.8,0,0,1,.63.86c0,.39-.36.67-.44.91a3.93,3.93,0,0,0-.25,1.54,4.86,4.86,0,0,0,.84,3C241.23,282.74,237.37,283,237.37,283Z" transform="translate(-37.25 -121.65)"/><ellipse class="cls-3" cx="238.28" cy="276.88" rx="1.54" ry="0.77" transform="translate(-84.93 -72.07) rotate(-10.81)"/><path class="cls-7" d="M239.63,277.86l0,0a3,3,0,0,1-2.27.36.14.14,0,0,1-.11-.17.15.15,0,0,1,.17-.11,2.72,2.72,0,0,0,2.06-.32.14.14,0,0,1,.2,0A.15.15,0,0,1,239.63,277.86Z" transform="translate(-37.25 -121.65)"/><path class="cls-6" d="M246.83,306.5s0,3.72,1.08,4.76a1.63,1.63,0,0,1,.6,1.16c0,.53-.85,1.13-1.59,1.34a3.32,3.32,0,0,1-1.79,0c-.5-.13-.7-.41-.71-.8s.29-.7.34-1a3.94,3.94,0,0,0,.09-1.55,4.86,4.86,0,0,0-1.13-2.87C243,307.11,246.83,306.5,246.83,306.5Z" transform="translate(-37.25 -121.65)"/><ellipse class="cls-3" cx="246.53" cy="312.64" rx="1.54" ry="0.77" transform="translate(-116.24 -38.27) rotate(-16.59)"/><path class="cls-7" d="M245.09,311.8l0,0a3,3,0,0,1,2.23-.59.15.15,0,0,1,0,.29,2.7,2.7,0,0,0-2,.52.14.14,0,0,1-.2,0A.14.14,0,0,1,245.09,311.8Z" transform="translate(-37.25 -121.65)"/><path class="cls-6" d="M231.35,300.16s-3.68-.51-4.86.43a1.63,1.63,0,0,1-1.23.43c-.53-.09-1-1-1.11-1.76a3.33,3.33,0,0,1,.23-1.77.8.8,0,0,1,.89-.59c.39,0,.66.38.9.47a3.93,3.93,0,0,0,1.52.3,4.86,4.86,0,0,0,3-.73C231.27,296.29,231.35,300.16,231.35,300.16Z" transform="translate(-37.25 -121.65)"/><ellipse class="cls-3" cx="225.31" cy="299.04" rx="0.77" ry="1.54" transform="translate(-80.44 -83.56) rotate(-8.82)"/><path class="cls-7" d="M226.33,297.72l0,0a3,3,0,0,1,.28,2.28.14.14,0,0,1-.18.1.14.14,0,0,1-.1-.18,2.71,2.71,0,0,0-.25-2.07.14.14,0,0,1,.05-.2A.15.15,0,0,1,226.33,297.72Z" transform="translate(-37.25 -121.65)"/><path class="cls-6" d="M240.6,308.17s-1.29,2.94-.78,4.14a1.41,1.41,0,0,1,.07,1.12c-.2.42-1.06.6-1.72.51a2.88,2.88,0,0,1-1.41-.61.69.69,0,0,1-.29-.87c.13-.31.47-.46.6-.64a3.38,3.38,0,0,0,.6-1.2,4.19,4.19,0,0,0,.09-2.66C237.38,307.33,240.6,308.17,240.6,308.17Z" transform="translate(-37.25 -121.65)"/><ellipse class="cls-3" cx="238.27" cy="312.92" rx="0.67" ry="1.33" transform="translate(-138.21 390.31) rotate(-83.12)"/><path class="cls-7" d="M237.41,311.76l0,0a2.6,2.6,0,0,1,2,.3.12.12,0,1,1-.13.21,2.34,2.34,0,0,0-1.77-.28.12.12,0,0,1-.1-.22Z" transform="translate(-37.25 -121.65)"/><path class="cls-6" d="M244.71,281.61s.95-3.07.3-4.2a1.41,1.41,0,0,1-.2-1.11c.15-.43,1-.72,1.65-.71a2.86,2.86,0,0,1,1.47.44.69.69,0,0,1,.38.83c-.1.33-.42.51-.52.7a3.4,3.4,0,0,0-.46,1.26,4.18,4.18,0,0,0,.21,2.66C248,282.08,244.71,281.61,244.71,281.61Z" transform="translate(-37.25 -121.65)"/><ellipse class="cls-3" cx="246.49" cy="276.63" rx="0.67" ry="1.33" transform="translate(-68.82 399.85) rotate(-89.66)"/><path class="cls-7" d="M247.48,277.68l0,0a2.6,2.6,0,0,1-2-.08.12.12,0,1,1,.1-.23,2.33,2.33,0,0,0,1.79.07.12.12,0,0,1,.12.21Z" transform="translate(-37.25 -121.65)"/><path class="cls-6" d="M230.41,293.17s-3-1.25-4.14-.72a1.41,1.41,0,0,1-1.12.09c-.42-.19-.62-1-.53-1.71a2.87,2.87,0,0,1,.59-1.42.69.69,0,0,1,.87-.3c.32.13.46.47.64.59a3.4,3.4,0,0,0,1.21.59,4.2,4.2,0,0,0,2.66.06C231.2,289.94,230.41,293.17,230.41,293.17Z" transform="translate(-37.25 -121.65)"/><ellipse class="cls-3" cx="225.62" cy="290.89" rx="1.33" ry="0.67" transform="translate(-125.08 362.31) rotate(-83.83)"/><path class="cls-7" d="M226.77,290v0a2.6,2.6,0,0,1-.28,2,.13.13,0,0,1-.17,0,.13.13,0,0,1,0-.17,2.34,2.34,0,0,0,.25-1.78.12.12,0,0,1,.22-.1Z" transform="translate(-37.25 -121.65)"/><path class="cls-7" d="M236.29,302.3a1.62,1.62,0,0,1,.24,2.15c-.49.47-1.4.28-2-.43a1.62,1.62,0,0,1-.24-2.15C234.76,301.4,235.67,301.59,236.29,302.3Z" transform="translate(-37.25 -121.65)"/><path class="cls-33" d="M235.69,301.09a2.87,2.87,0,0,1,1.85,2.2" transform="translate(-37.25 -121.65)"/><path class="cls-33" d="M235.69,305.31a2.81,2.81,0,0,1-2.16-1.86" transform="translate(-37.25 -121.65)"/><path class="cls-7" d="M252.24,286.55c.57.58.67,1.38.22,1.77a1.42,1.42,0,0,1-1.84-.36c-.57-.58-.67-1.38-.22-1.77A1.41,1.41,0,0,1,252.24,286.55Z" transform="translate(-37.25 -121.65)"/><path class="cls-34" d="M251.69,285.55a2.48,2.48,0,0,1,1.68,1.81" transform="translate(-37.25 -121.65)"/><path class="cls-34" d="M251.69,289a2.54,2.54,0,0,1-2-1.53" transform="translate(-37.25 -121.65)"/><path class="cls-7" d="M242.29,304.82c.61.15,1,.63.87,1.07a1.1,1.1,0,0,1-1.35.52c-.61-.15-1-.63-.87-1.07A1.09,1.09,0,0,1,242.29,304.82Z" transform="translate(-37.25 -121.65)"/><path class="cls-35" d="M241.53,304.39a1.92,1.92,0,0,1,1.84.5" transform="translate(-37.25 -121.65)"/><path class="cls-35" d="M242.95,306.67a2,2,0,0,1-1.92-.2" transform="translate(-37.25 -121.65)"/><path class="cls-7" d="M242.31,299.65a1.45,1.45,0,0,1,1.6,1,1.16,1.16,0,0,1-1.06,1.39,1.45,1.45,0,0,1-1.6-1A1.16,1.16,0,0,1,242.31,299.65Z" transform="translate(-37.25 -121.65)"/><path class="cls-36" d="M241.23,299.44a1.81,1.81,0,0,1,2.23-.22" transform="translate(-37.25 -121.65)"/><path class="cls-36" d="M244.19,301.88a1.78,1.78,0,0,1-2.12.67" transform="translate(-37.25 -121.65)"/><path class="cls-7" d="M245.32,286.46a1.45,1.45,0,0,1,1.56,1.1,1.16,1.16,0,0,1-1.11,1.35,1.45,1.45,0,0,1-1.56-1.1A1.16,1.16,0,0,1,245.32,286.46Z" transform="translate(-37.25 -121.65)"/><path class="cls-36" d="M244.25,286.2a1.81,1.81,0,0,1,2.24-.14" transform="translate(-37.25 -121.65)"/><path class="cls-36" d="M247.13,288.75a1.78,1.78,0,0,1-2.14.59" transform="translate(-37.25 -121.65)"/><path class="cls-7" d="M232.57,294.53c.22.59,0,1.18-.4,1.32s-1-.24-1.19-.83,0-1.18.4-1.32S232.36,293.94,232.57,294.53Z" transform="translate(-37.25 -121.65)"/><path class="cls-35" d="M232.5,293.65a1.92,1.92,0,0,1,.61,1.81" transform="translate(-37.25 -121.65)"/><path class="cls-35" d="M231.41,296.1a2,2,0,0,1-.9-1.7" transform="translate(-37.25 -121.65)"/><path class="cls-7" d="M238.82,283.87c1-.38,2.07-.19,2.34.43s-.35,1.44-1.38,1.82-2.07.19-2.34-.43S237.79,284.25,238.82,283.87Z" transform="translate(-37.25 -121.65)"/><path class="cls-37" d="M237.28,284.07a3.79,3.79,0,0,1,3.13-1.09" transform="translate(-37.25 -121.65)"/><path class="cls-37" d="M241.65,285.38a3.67,3.67,0,0,1-2.92,1.5" transform="translate(-37.25 -121.65)"/><ellipse class="cls-7" cx="249.64" cy="303.42" rx="2.33" ry="1.68" transform="translate(-157.92 50.41) rotate(-31.02)"/><path class="cls-38" d="M247,302.47a3.89,3.89,0,0,1,3.37-1.93" transform="translate(-37.25 -121.65)"/><path class="cls-38" d="M252.51,303.6a3.89,3.89,0,0,1-3,2.44" transform="translate(-37.25 -121.65)"/><path class="cls-7" d="M251.35,295.11a2.29,2.29,0,0,1,2.09-2.26,2,2,0,0,1,1.66,2.41,2.29,2.29,0,0,1-2.09,2.26A2,2,0,0,1,251.35,295.11Z" transform="translate(-37.25 -121.65)"/><path class="cls-39" d="M250.65,296.85a3.57,3.57,0,0,1,.46-3.89" transform="translate(-37.25 -121.65)"/><path class="cls-39" d="M255.26,292.88a3.53,3.53,0,0,1,.24,3.88" transform="translate(-37.25 -121.65)"/><path class="cls-40" d="M236.94,294.4s2.35-2.41,4,1.47" transform="translate(-37.25 -121.65)"/><ellipse class="cls-16" cx="235.59" cy="291.37" rx="1.28" ry="1.03" transform="translate(-115.97 373.69) rotate(-84.02)"/><line class="cls-40" x1="198.59" y1="167.93" x2="199.57" y2="169.74"/><ellipse class="cls-16" cx="244.43" cy="294.63" rx="1.38" ry="1.11" transform="translate(-111.4 385.25) rotate(-83.99)"/><line class="cls-40" x1="205.7" y1="172.07" x2="208.3" y2="171.14"/><path class="cls-41" d="M169.73,183.71s4.89-.18,6.78-1,1.2-3.49.44-4.94-3.05-2.48-7.85-2.29" transform="translate(-37.25 -121.65)"/><path class="cls-42" d="M170.21,183.62c-1.28.46-2.73-1-3.24-3.2s.11-4.4,1.38-4.86,2.73,1,3.24,3.19S171.49,183.16,170.21,183.62Z" transform="translate(-37.25 -121.65)"/><path class="cls-43" d="M169.88,182.15c-.81.29-1.73-.62-2.06-2s.07-2.8.88-3.09,1.73.62,2.06,2S170.69,181.86,169.88,182.15Z" transform="translate(-37.25 -121.65)"/><path class="cls-41" d="M170.28,192.26s5.81-.22,8.05-1.16,1.42-4.14.52-5.86-3.62-2.95-9.31-2.72" transform="translate(-37.25 -121.65)"/><path class="cls-42" d="M170.85,192.15c-1.51.55-3.24-1.15-3.85-3.79s.13-5.23,1.64-5.77,3.24,1.15,3.85,3.79S172.37,191.61,170.85,192.15Z" transform="translate(-37.25 -121.65)"/><path class="cls-43" d="M170.45,190.41c-1,.35-2.06-.73-2.45-2.41s.08-3.32,1-3.67,2.06.73,2.45,2.41S171.41,190.06,170.45,190.41Z" transform="translate(-37.25 -121.65)"/><path class="cls-44" d="M188.17,187.14l-12.88-14.33s1.12-2.39-.86-2.75-5.68,1.33-6.22,2c-1.4,1.8,5.69,18.49,5.69,18.49l14.32-3.35" transform="translate(-37.25 -121.65)"/><polygon class="cls-45" points="134.16 51.98 134.43 51.94 138.09 51.24 138.42 51.61 134.16 51.98"/><path class="cls-41" d="M192.36,214.32s7.24-3.05,9.73-5,1.08-4.15-.52-5.57-7.57-.34-13.92,1.36" transform="translate(-37.25 -121.65)"/><ellipse class="cls-42" cx="189.85" cy="209.65" rx="4.57" ry="5.4" transform="translate(-130.15 81.16) rotate(-46.45)"/><ellipse class="cls-43" cx="189.85" cy="209.65" rx="2.9" ry="3.43" transform="translate(-130.15 81.18) rotate(-46.45)"/><path class="cls-41" d="M203.63,218.94s7.24-3.05,9.73-5,1.08-4.15-.52-5.57-7.57-.34-13.92,1.36" transform="translate(-37.25 -121.65)"/><ellipse class="cls-42" cx="201.12" cy="214.27" rx="4.57" ry="5.4" transform="translate(-130 90.76) rotate(-46.45)"/><ellipse class="cls-43" cx="201.12" cy="214.27" rx="2.9" ry="3.43" transform="translate(-130 90.78) rotate(-46.45)"/><path class="cls-46" d="M153.91,199.79a4.44,4.44,0,0,0,1.7,5.75l.18.1c2.89,1.56,7.33,3,17,1.63s26.52-5.93,31.95-8.08,20.55-7.18,22.62-10.11.64-5.91-8.7-5.94-23.37,1.73-39.72,4.12-14.37,3.37-17.42,5.49A14,14,0,0,0,153.91,199.79Z" transform="translate(-37.25 -121.65)"/><path class="cls-47" d="M205.35,186.2c-3-1-20.17.63-24,1.59s-5.88,1-7.13,1.37c-3.66,1-3.55,2.86-1,2.28.15,0,23.28-4.7,31-5.2C204.64,186.21,205.35,186.2,205.35,186.2Z" transform="translate(-37.25 -121.65)"/><path class="cls-46" d="M217.28,183.55l1,1.17s5.74-.85,8.63,0l3.17-9.92a.57.57,0,0,0-.72-.72l-3.42,1.1a2.63,2.63,0,0,0-1.06.65Z" transform="translate(-37.25 -121.65)"/><path class="cls-41" d="M225.8,175.71l3.75-1.62h0l-.17,0-3.42,1.1a2.66,2.66,0,0,0-1.06.65l-7.62,7.68,1,1.17,7-8.67A1.17,1.17,0,0,1,225.8,175.71Z" transform="translate(-37.25 -121.65)"/><path class="cls-6" d="M226.61,189.33A9.47,9.47,0,0,1,220.4,192s-10.73,3.92-14.65,5.55-16.29,4.44-23.67,6.07-17.76,3.07-24,1.24c-2.88-.85-4.14-2-4.66-3.07a4.36,4.36,0,0,0,2.14,3.74l.17.1c2.89,1.56,7.33,3,17,1.63s26.52-5.93,31.95-8.08c5.17-2.05,19.88-6.86,22.29-9.69l-.38-.17Z" transform="translate(-37.25 -121.65)"/><path class="cls-48" d="M165.7,190.53a1.77,1.77,0,0,0,.18,2s-1.13.37-3.4,3.18a4,4,0,0,1-.34-2.62C162.53,191.91,165.7,190.53,165.7,190.53Z" transform="translate(-37.25 -121.65)"/><path class="cls-48" d="M163.52,196.94a13.4,13.4,0,0,1,3.22-3.23,11,11,0,0,0,3.89,2.44,17.72,17.72,0,0,0-1.54,3.57S165.48,199,163.52,196.94Z" transform="translate(-37.25 -121.65)"/><path class="cls-46" d="M219.66,192.34a2.42,2.42,0,0,1,.95-1.5c.81-.55,6.23-3,6.23-3l10.1,3.69.44-.16a.94.94,0,0,1,.69,0l.07,0a.93.93,0,0,1,.49,1.23h0a.93.93,0,0,1-.51.5l-2.8,1.11a1.8,1.8,0,0,1-.92.11Z" transform="translate(-37.25 -121.65)"/><path class="cls-41" d="M238.68,192.47a.93.93,0,0,0-.54-1l-.07,0a.93.93,0,0,0-.69,0l-.45.16-10.1-3.69,9.18,3.76a6.05,6.05,0,0,0-2.4,1.56,11.68,11.68,0,0,1,2.83-1.25C237.7,191.64,238.49,191.38,238.68,192.47Z" transform="translate(-37.25 -121.65)"/><path class="cls-49" d="M155.24,200.69a13.49,13.49,0,0,1,4.38-4.75" transform="translate(-37.25 -121.65)"/><path class="cls-46" d="M183.25,203.15l33.74,15a2.58,2.58,0,0,0,1.68.13l6.4-1.65s1.25-1.87-.28-3.06a2.41,2.41,0,0,0-2.77-.39l-19.19-10.89a7.07,7.07,0,0,1-2.36-2.32l-2-3.2Z" transform="translate(-37.25 -121.65)"/><path class="cls-41" d="M224.79,213.6a2.41,2.41,0,0,0-2.77-.39l-19.19-10.89L221,213.76a9.59,9.59,0,0,0-3.12,2s3.75-1.88,5.16-2,3.14.93,2,2.9C225.07,216.66,226.32,214.79,224.79,213.6Z" transform="translate(-37.25 -121.65)"/><line class="cls-49" x1="152.56" y1="81.99" x2="178.09" y2="93.64"/><path class="cls-41" d="M424.58,205.07s4.81.94,6.83.6,2-3.12,1.55-4.71-2.41-3.11-7.12-4" transform="translate(-37.25 -121.65)"/><path class="cls-42" d="M425.07,205.09c-1.35.16-2.43-1.57-2.43-3.85s1.11-4.26,2.46-4.42,2.43,1.57,2.43,3.85S426.42,204.94,425.07,205.09Z" transform="translate(-37.25 -121.65)"/><path class="cls-43" d="M425.08,203.59c-.86.1-1.55-1-1.54-2.45s.7-2.71,1.56-2.81,1.55,1,1.54,2.45S425.93,203.49,425.08,203.59Z" transform="translate(-37.25 -121.65)"/><path class="cls-41" d="M423.16,213.52s5.7,1.12,8.1.71,2.33-3.7,1.84-5.59-2.86-3.7-8.45-4.77" transform="translate(-37.25 -121.65)"/><path class="cls-42" d="M423.74,213.55c-1.6.19-2.89-1.86-2.88-4.57s1.31-5.06,2.92-5.25,2.89,1.86,2.88,4.57S425.34,213.36,423.74,213.55Z" transform="translate(-37.25 -121.65)"/><path class="cls-43" d="M423.75,211.76c-1,.12-1.83-1.18-1.83-2.91s.83-3.21,1.85-3.33,1.83,1.18,1.83,2.9S424.77,211.64,423.75,211.76Z" transform="translate(-37.25 -121.65)"/><path class="cls-44" d="M441.74,212.62l-9.27-16.89s1.63-2.07-.21-2.88-5.83,0-6.53.56c-1.77,1.44,1.32,19.3,1.32,19.3h14.71" transform="translate(-37.25 -121.65)"/><polygon class="cls-45" points="391.27 74 391.54 74.01 395.26 74.16 395.5 74.61 391.27 74"/><path class="cls-41" d="M439.62,240s7.74-1.32,10.62-2.66,2-3.79.76-5.54-7.29-2.06-13.87-1.85" transform="translate(-37.25 -121.65)"/><ellipse class="cls-42" cx="438.25" cy="234.92" rx="4.57" ry="5.4" transform="translate(-94.3 157.18) rotate(-33.26)"/><ellipse class="cls-43" cx="438.25" cy="234.92" rx="2.9" ry="3.43" transform="translate(-94.3 157.18) rotate(-33.26)"/><path class="cls-41" d="M449.54,247.11s7.74-1.32,10.62-2.66,2-3.79.76-5.54-7.29-2.05-13.87-1.85" transform="translate(-37.25 -121.65)"/><ellipse class="cls-42" cx="448.17" cy="241.99" rx="4.57" ry="5.4" transform="translate(-96.56 163.74) rotate(-33.25)"/><ellipse class="cls-43" cx="448.17" cy="241.99" rx="2.9" ry="3.43" transform="translate(-96.55 163.79) rotate(-33.26)"/><path class="cls-46" d="M405.5,217.11a4.44,4.44,0,0,0,.34,6l.15.14c2.46,2.18,6.45,4.62,16.16,5.46s27.17.28,32.95-.58,21.64-2.3,24.33-4.68,2-5.61-7.12-7.77-23.14-3.65-39.61-5.05-14.76,0-18.21,1.37A14,14,0,0,0,405.5,217.11Z" transform="translate(-37.25 -121.65)"/><path class="cls-47" d="M458.69,215.63c-2.71-1.69-19.79-4-23.74-3.94s-5.95-.39-7.26-.29c-3.79.14-4.11,2-1.48,2,.16,0,23.74.74,31.37,2C458,215.48,458.69,215.63,458.69,215.63Z" transform="translate(-37.25 -121.65)"/><path class="cls-46" d="M470.91,215.77l.74,1.37s5.79.48,8.39,2l5.35-8.93a.57.57,0,0,0-.54-.87l-3.58.29a2.63,2.63,0,0,0-1.18.39Z" transform="translate(-37.25 -121.65)"/><path class="cls-41" d="M481,210.08l4-.72h-.17l-3.58.29a2.66,2.66,0,0,0-1.18.39l-9.18,5.74.74,1.37,8.83-6.83A1.18,1.18,0,0,1,481,210.08Z" transform="translate(-37.25 -121.65)"/><path class="cls-6" d="M478.68,223.52a9.48,9.48,0,0,1-6.65,1.19s-11.34,1.37-15.54,2.06-16.87.61-24.43.51-18-1.06-23.61-4.26c-2.61-1.49-3.56-2.93-3.83-4a4.35,4.35,0,0,0,1.23,4.13l.15.14c2.46,2.18,6.45,4.62,16.16,5.46s27.17.28,32.95-.58c5.5-.82,20.92-2.15,23.91-4.35l-.33-.25Z" transform="translate(-37.25 -121.65)"/><path class="cls-48" d="M419.09,210.79a1.77,1.77,0,0,0-.27,2s-1.18.1-4,2.32a4,4,0,0,1,.26-2.63C415.7,211.41,419.09,210.79,419.09,210.79Z" transform="translate(-37.25 -121.65)"/><path class="cls-48" d="M415.51,216.54a13.4,13.4,0,0,1,3.87-2.41,11,11,0,0,0,3.23,3.27,17.75,17.75,0,0,0-2.32,3.13S417,219,415.51,216.54Z" transform="translate(-37.25 -121.65)"/><path class="cls-46" d="M471.22,224.87a2.41,2.41,0,0,1,1.26-1.24c.91-.35,6.75-1.49,6.75-1.49l9,5.9.47-.06a.94.94,0,0,1,.67.18l.06,0a.93.93,0,0,1,.2,1.3h0a.93.93,0,0,1-.61.37l-3,.44a1.8,1.8,0,0,1-.92-.1Z" transform="translate(-37.25 -121.65)"/><path class="cls-41" d="M489.71,229.34a.93.93,0,0,0-.29-1.13l-.06,0a.93.93,0,0,0-.67-.17l-.47.06-9-5.9,8.08,5.76a6.06,6.06,0,0,0-2.7,1,11.68,11.68,0,0,1,3-.58C488.95,228.31,489.77,228.23,489.71,229.34Z" transform="translate(-37.25 -121.65)"/><path class="cls-49" d="M406.6,218.3a13.49,13.49,0,0,1,5.35-3.62" transform="translate(-37.25 -121.65)"/><path class="cls-46" d="M433.3,227.08l29.42,22.33a2.58,2.58,0,0,0,1.6.51l6.61-.14s1.64-1.53.42-3a2.41,2.41,0,0,0-2.61-1l-16.2-15a7.06,7.06,0,0,1-1.77-2.79l-1.22-3.57Z" transform="translate(-37.25 -121.65)"/><path class="cls-41" d="M471.36,246.74a2.41,2.41,0,0,0-2.61-1l-16.2-15L467.64,246a9.58,9.58,0,0,0-3.49,1.2s4.08-1,5.48-.73,2.84,1.62,1.31,3.28C470.94,249.78,472.58,248.25,471.36,246.74Z" transform="translate(-37.25 -121.65)"/><line class="cls-49" x1="402.33" y1="107.41" x2="424.53" y2="124.58"/></svg>